<svg width="80" height="80" viewBox="0 0 80 80" fill="none" xmlns="http://www.w3.org/2000/svg">
<mask id="mask0_387_2376" style="mask-type:alpha" maskUnits="userSpaceOnUse" x="0" y="0" width="80" height="80">
<rect width="80" height="80" fill="#D9D9D9"/>
</mask>
<g mask="url(#mask0_387_2376)">
<path d="M36.6667 56.6667H43.3334V43.3334H56.6667V36.6667H43.3334V23.3334H36.6667V36.6667H23.3334V43.3334H36.6667V56.6667ZM40.0001 73.3334C35.389 73.3334 31.0556 72.4584 27.0001 70.7084C22.9445 68.9584 19.4167 66.5834 16.4167 63.5834C13.4167 60.5834 11.0417 57.0556 9.29175 53.0001C7.54175 48.9445 6.66675 44.6112 6.66675 40.0001C6.66675 35.389 7.54175 31.0556 9.29175 27.0001C11.0417 22.9445 13.4167 19.4167 16.4167 16.4167C19.4167 13.4167 22.9445 11.0417 27.0001 9.29175C31.0556 7.54175 35.389 6.66675 40.0001 6.66675C44.6112 6.66675 48.9445 7.54175 53.0001 9.29175C57.0556 11.0417 60.5834 13.4167 63.5834 16.4167C66.5834 19.4167 68.9584 22.9445 70.7084 27.0001C72.4584 31.0556 73.3334 35.389 73.3334 40.0001C73.3334 44.6112 72.4584 48.9445 70.7084 53.0001C68.9584 57.0556 66.5834 60.5834 63.5834 63.5834C60.5834 66.5834 57.0556 68.9584 53.0001 70.7084C48.9445 72.4584 44.6112 73.3334 40.0001 73.3334ZM40.0001 66.6667C47.4445 66.6667 53.7501 64.0834 58.9167 58.9167C64.0834 53.7501 66.6667 47.4445 66.6667 40.0001C66.6667 32.5556 64.0834 26.2501 58.9167 21.0834C53.7501 15.9167 47.4445 13.3334 40.0001 13.3334C32.5556 13.3334 26.2501 15.9167 21.0834 21.0834C15.9167 26.2501 13.3334 32.5556 13.3334 40.0001C13.3334 47.4445 15.9167 53.7501 21.0834 58.9167C26.2501 64.0834 32.5556 66.6667 40.0001 66.6667Z" fill="#989898"/>
</g>
</svg>
