<svg width="200" height="64" viewBox="0 0 200 64" fill="none" xmlns="http://www.w3.org/2000/svg">
<rect width="200" height="64" rx="20" fill="#1D5AD4"/>
<path d="M40.9178 46H35.2225L44.0467 20.5469H50.8319L59.6209 46H53.9608L52.0623 40.1289H42.8514L40.9178 46ZM44.1873 36.0156H50.7264L47.5272 26.2773H47.3514L44.1873 36.0156ZM66.8814 34.9609V46H61.6783V26.9102H66.6353V30.25H66.8463C67.7252 28.0352 69.7642 26.6641 72.5767 26.6641C76.5494 26.6641 79.1861 29.3711 79.1509 33.8359V46H73.983V34.75C73.983 32.3945 72.6822 30.9883 70.5377 30.9883C68.358 30.9883 66.8814 32.4297 66.8814 34.9609ZM89.5052 46.3164C85.1458 46.3164 81.7356 42.8359 81.7356 36.4727C81.7356 29.9336 85.2864 26.6641 89.5052 26.6641C92.7044 26.6641 94.2161 28.5625 94.9192 30.1094H95.095V20.5469H100.298V46H95.1653V42.9414H94.9192C94.1809 44.5234 92.5989 46.3164 89.5052 46.3164ZM91.1223 42.168C93.7239 42.168 95.2005 39.8828 95.2005 36.4375C95.2005 32.9922 93.7239 30.8125 91.1223 30.8125C88.4856 30.8125 87.0794 33.0977 87.0794 36.4375C87.0794 39.8125 88.4856 42.168 91.1223 42.168ZM103.762 46V26.9102H108.789V30.2148H109C109.703 27.8594 111.461 26.6289 113.605 26.6289C114.133 26.6289 114.801 26.6992 115.258 26.8047V31.4453C114.766 31.3047 113.781 31.1641 113.043 31.1641C110.688 31.1641 108.965 32.8164 108.965 35.1367V46H103.762ZM125.05 46.3867C119.284 46.3867 115.698 42.4141 115.698 36.5078C115.698 30.6016 119.284 26.6641 125.05 26.6641C130.815 26.6641 134.436 30.6016 134.436 36.5078C134.436 42.4141 130.815 46.3867 125.05 46.3867ZM125.085 42.3438C127.757 42.3438 129.128 39.8477 129.128 36.5078C129.128 33.1328 127.757 30.6367 125.085 30.6367C122.378 30.6367 120.971 33.1328 120.971 36.5078C120.971 39.8477 122.378 42.3438 125.085 42.3438ZM136.986 46V26.9102H142.189V46H136.986ZM139.587 24.4141C138.005 24.4141 136.74 23.2188 136.74 21.7773C136.74 20.3008 138.005 19.1055 139.587 19.1055C141.134 19.1055 142.4 20.3008 142.4 21.7773C142.4 23.2188 141.134 24.4141 139.587 24.4141ZM152.543 46.3164C148.184 46.3164 144.774 42.8359 144.774 36.4727C144.774 29.9336 148.324 26.6641 152.543 26.6641C155.742 26.6641 157.254 28.5625 157.957 30.1094H158.133V20.5469H163.336V46H158.203V42.9414H157.957C157.219 44.5234 155.637 46.3164 152.543 46.3164ZM154.16 42.168C156.762 42.168 158.238 39.8828 158.238 36.4375C158.238 32.9922 156.762 30.8125 154.16 30.8125C151.524 30.8125 150.117 33.0977 150.117 36.4375C150.117 39.8125 151.524 42.168 154.16 42.168Z" fill="white"/>
</svg>
