<svg width="202" height="66" viewBox="0 0 202 66" fill="none" xmlns="http://www.w3.org/2000/svg">
<rect x="1" y="1" width="200" height="64" rx="20" fill="white" stroke="#1D5AD4" stroke-width="2"/>
<path d="M44.0799 47H40.7752L50.0916 21.5469H53.4315L62.7479 47H59.408L56.8768 39.8281H46.6463L44.0799 47ZM47.5955 37.0508H55.8924L51.8495 25.6602H51.6385L47.5955 37.0508ZM68.1099 35.5391V47H65.0865V27.9102H68.0045V30.8984H68.2505C69.1646 28.9648 70.9224 27.6641 73.8404 27.6641C77.7076 27.6641 80.274 30.0195 80.274 34.8711V47H77.2505V35.082C77.2505 32.1289 75.6334 30.3711 72.9263 30.3711C70.149 30.3711 68.1099 32.2344 68.1099 35.5391ZM91.6126 47.3867C86.8665 47.3867 83.4915 43.5547 83.4915 37.5078C83.4915 31.4609 86.8665 27.6641 91.6477 27.6641C95.3391 27.6641 96.5345 29.9141 97.1673 30.9336H97.3782V21.5469H100.437V47H97.4837V44.082H97.1673C96.4993 45.1367 95.2688 47.3867 91.6126 47.3867ZM92.0345 44.6797C95.5149 44.6797 97.4837 41.7266 97.4837 37.4375C97.4837 33.2188 95.5852 30.3711 92.0345 30.3711C88.3782 30.3711 86.5501 33.4648 86.5501 37.4375C86.5501 41.5156 88.4134 44.6797 92.0345 44.6797ZM104.955 47V27.9102H107.873V30.8281H108.084C108.787 28.8945 110.756 27.5938 113.006 27.5938C113.463 27.5938 114.236 27.6289 114.588 27.6641V30.7227C114.377 30.6523 113.533 30.5117 112.76 30.5117C110.018 30.5117 107.979 32.4102 107.979 34.9766V47H104.955ZM123.993 47.3867C118.79 47.3867 115.274 43.4844 115.274 37.543C115.274 31.6016 118.79 27.6641 123.993 27.6641C129.161 27.6641 132.641 31.6016 132.641 37.543C132.641 43.4844 129.161 47.3867 123.993 47.3867ZM123.993 44.7148C127.825 44.7148 129.618 41.3398 129.618 37.543C129.618 33.7461 127.825 30.3359 123.993 30.3359C120.091 30.3359 118.298 33.7461 118.298 37.543C118.298 41.3398 120.091 44.7148 123.993 44.7148ZM135.894 47V27.9102H138.917V47H135.894ZM137.406 24.7461C136.246 24.7461 135.296 23.8672 135.296 22.7422C135.296 21.6172 136.246 20.7383 137.406 20.7383C138.566 20.7383 139.55 21.6172 139.55 22.7422C139.55 23.8672 138.566 24.7461 137.406 24.7461ZM150.221 47.3867C145.475 47.3867 142.1 43.5547 142.1 37.5078C142.1 31.4609 145.475 27.6641 150.256 27.6641C153.947 27.6641 155.143 29.9141 155.776 30.9336H155.986V21.5469H159.045V47H156.092V44.082H155.776C155.108 45.1367 153.877 47.3867 150.221 47.3867ZM150.643 44.6797C154.123 44.6797 156.092 41.7266 156.092 37.4375C156.092 33.2188 154.194 30.3711 150.643 30.3711C146.986 30.3711 145.158 33.4648 145.158 37.4375C145.158 41.5156 147.022 44.6797 150.643 44.6797Z" fill="#1D5AD4"/>
</svg>
