<svg width="160" height="80" viewBox="0 0 160 80" fill="none" xmlns="http://www.w3.org/2000/svg">
<rect width="160" height="80" rx="20" fill="white"/>
<path d="M27.068 33.3711C27.068 37.5 30.0758 41.6836 33.6578 43.2422L32.4547 44.9375C29.6109 43.6387 27.15 40.8359 26.0289 37.4727C24.8805 41.041 22.4332 44.1445 19.6578 45.5391L18.3727 43.8438C21.8453 42.1758 24.8805 37.582 24.9078 33.3711V30.1992H19.1656V28.4219H32.8648V30.1992H27.068V33.3711ZM38.4156 25.9062V50.2148H36.2555V25.9062H38.4156ZM62.0548 25.9336V44.3906H59.8947V41.875H54.8634V40.3164H59.8947V25.9336H62.0548ZM62.6564 47.8906V49.6953H45.3752V42.5859H47.5353V47.8906H62.6564ZM41.8752 37.1992C46.4142 37.1719 52.4845 37.1445 57.7072 36.4883L57.8439 38.0469C55.6701 38.3887 53.4005 38.6074 51.172 38.7305V43.543H49.0119V38.8398C46.5509 38.9492 44.213 38.9629 42.1759 38.9492L41.8752 37.1992ZM49.8595 26.918C53.4142 26.918 55.8478 28.6133 55.8752 31.1562C55.8478 33.7539 53.4142 35.3672 49.8595 35.3672C46.2775 35.3672 43.8439 33.7539 43.8439 31.1562C43.8439 28.6133 46.2775 26.918 49.8595 26.918ZM49.8595 28.5586C47.4806 28.5312 45.8673 29.5977 45.8947 31.1562C45.8673 32.7422 47.4806 33.7812 49.8595 33.7812C52.1564 33.7812 53.797 32.7422 53.8244 31.1562C53.797 29.5977 52.1564 28.5312 49.8595 28.5586ZM73.8816 33.3711C73.8542 37.2812 76.6706 41.5742 80.198 43.2422L78.9675 44.9375C76.2331 43.6113 73.9226 40.7129 72.8425 37.418C71.7214 41 69.2741 44.1445 66.5534 45.5391L65.2409 43.8438C68.7409 42.1484 71.7488 37.5273 71.7761 33.3711V30.1992H66.1159V28.4219H79.3503V30.1992H73.8816V33.3711ZM84.4636 25.9062V35.75H88.5378V37.582H84.4636V50.2148H82.3308V25.9062H84.4636ZM118.015 45.3203V47.0977H95.7577V45.3203H105.765V40.0703H98.3827V27.6289H100.543V32.0312H113.176V27.6289H115.281V40.0703H107.871V45.3203H118.015ZM100.543 38.3203H113.176V33.7812H100.543V38.3203ZM139.495 25.9062V50.2148H137.334V25.9062H139.495ZM132.303 28.5586C132.276 35.5586 129.022 41.7383 120.873 45.6484L119.698 43.8984C126.274 40.7812 129.623 36.1191 130.116 30.3086H120.819V28.5586H132.303Z" fill="black"/>
</svg>
