<svg width="160" height="80" viewBox="0 0 160 80" fill="none" xmlns="http://www.w3.org/2000/svg">
<rect width="160" height="80" rx="20" fill="white"/>
<path d="M28.066 32.4141C28.066 36.4336 30.1168 40.7266 34.3004 42.4766L32.4137 45.2109C29.4742 43.9668 27.4508 41.4922 26.3434 38.457C25.2086 41.752 23.1441 44.4863 20.2184 45.8398L18.2223 43.0781C22.3512 41.2461 24.484 36.625 24.484 32.4141V30.8828H19.2066V28.0391H33.2613V30.8828H28.066V32.4141ZM39.2496 25.6328V50.5156H35.7223V25.6328H39.2496ZM63.1349 25.6602V44.4453H59.6349V42.4766H54.8771V40.0977H59.6349V25.6602H63.1349ZM63.6818 47.2891V50.0781H45.1427V42.6406H48.6154V39.332C46.3869 39.4277 44.2677 39.4414 42.381 39.4414L41.9709 36.6797C46.5373 36.6523 52.6896 36.5977 57.9396 35.9414L58.131 38.4297C56.1623 38.7578 54.1252 38.9902 52.1154 39.1406V43.8711H48.6154V47.2891H63.6818ZM50.0646 26.5078C53.674 26.4805 56.2716 28.3125 56.2716 30.9648C56.2716 33.6172 53.674 35.3398 50.0646 35.3398C46.3732 35.3398 43.8029 33.6172 43.8029 30.9648C43.8029 28.3125 46.3459 26.4805 50.0646 26.5078ZM50.0646 29.0508C48.2873 29.0508 47.0841 29.7344 47.1115 30.9648C47.0841 32.168 48.2873 32.8242 50.0646 32.8242C51.7326 32.8242 52.9357 32.168 52.963 30.9648C52.9357 29.7344 51.7326 29.0508 50.0646 29.0508ZM74.8796 32.4141C74.8523 36.2148 76.8757 40.5898 80.9773 42.4766L79.0359 45.2109C76.2605 43.9395 74.278 41.3965 73.1843 38.4023C72.0632 41.6973 70.0261 44.4863 67.1413 45.8398L65.1179 43.0781C69.2741 41.1367 71.3523 36.5156 71.3796 32.4141V30.8828H66.1023V28.0391H79.8835V30.8828H74.8796V32.4141ZM85.3249 25.6328V35.1211H88.989V38.0469H85.3249V50.5156H81.8249V25.6328H85.3249ZM118.002 44.7734V47.6172H95.2245V44.7734H104.822V40.1797H97.6307V27.2188H101.131V31.0742H111.986V27.2188H115.459V40.1797H108.295V44.7734H118.002ZM101.131 37.3906H111.986V33.8633H101.131V37.3906ZM139.782 25.6328V50.5156H136.254V25.6328H139.782ZM132.317 28.2305C132.317 35.7773 129.664 42.0391 120.778 46.25L118.946 43.4609C125.371 40.4258 128.202 36.4883 128.762 30.9648H120.286V28.2305H132.317Z" fill="#1D5AD4"/>
</svg>
