<svg width="40" height="40" viewBox="0 0 40 40" fill="none" xmlns="http://www.w3.org/2000/svg">
<mask id="mask0_174_640" style="mask-type:alpha" maskUnits="userSpaceOnUse" x="0" y="0" width="40" height="40">
<rect width="40" height="40" fill="#D9D9D9"/>
</mask>
<g mask="url(#mask0_174_640)">
<path d="M8.84629 35.8334C8.00435 35.8334 7.29171 35.5417 6.70837 34.9584C6.12504 34.375 5.83337 33.6624 5.83337 32.8204V10.5129C5.83337 9.671 6.12504 8.95836 6.70837 8.37503C7.29171 7.79169 8.00435 7.50003 8.84629 7.50003H11.1538V3.97461H13.718V7.50003H26.3463V3.97461H28.8463V7.50003H31.1538C31.9957 7.50003 32.7084 7.79169 33.2917 8.37503C33.875 8.95836 34.1667 9.671 34.1667 10.5129V32.8204C34.1667 33.6624 33.875 34.375 33.2917 34.9584C32.7084 35.5417 31.9957 35.8334 31.1538 35.8334H8.84629ZM8.84629 33.3334H31.1538C31.2821 33.3334 31.3996 33.2799 31.5063 33.1729C31.6132 33.0663 31.6667 32.9488 31.6667 32.8204V17.1796H8.33337V32.8204C8.33337 32.9488 8.38685 33.0663 8.49379 33.1729C8.60046 33.2799 8.71796 33.3334 8.84629 33.3334ZM8.33337 14.6796H31.6667V10.5129C31.6667 10.3846 31.6132 10.2671 31.5063 10.1604C31.3996 10.0535 31.2821 10 31.1538 10H8.84629C8.71796 10 8.60046 10.0535 8.49379 10.1604C8.38685 10.2671 8.33337 10.3846 8.33337 10.5129V14.6796ZM20 23.4617C19.592 23.4617 19.2442 23.3179 18.9567 23.0304C18.6695 22.7432 18.5259 22.3954 18.5259 21.9871C18.5259 21.5791 18.6695 21.2313 18.9567 20.9438C19.2442 20.6566 19.592 20.5129 20 20.5129C20.4081 20.5129 20.7559 20.6566 21.0434 20.9438C21.3306 21.2313 21.4742 21.5791 21.4742 21.9871C21.4742 22.3954 21.3306 22.7432 21.0434 23.0304C20.7559 23.3179 20.4081 23.4617 20 23.4617ZM13.3334 23.4617C12.9253 23.4617 12.5775 23.3179 12.29 23.0304C12.0028 22.7432 11.8592 22.3954 11.8592 21.9871C11.8592 21.5791 12.0028 21.2313 12.29 20.9438C12.5775 20.6566 12.9253 20.5129 13.3334 20.5129C13.7414 20.5129 14.0892 20.6566 14.3767 20.9438C14.6639 21.2313 14.8075 21.5791 14.8075 21.9871C14.8075 22.3954 14.6639 22.7432 14.3767 23.0304C14.0892 23.3179 13.7414 23.4617 13.3334 23.4617ZM26.6667 23.4617C26.2587 23.4617 25.9109 23.3179 25.6234 23.0304C25.3362 22.7432 25.1925 22.3954 25.1925 21.9871C25.1925 21.5791 25.3362 21.2313 25.6234 20.9438C25.9109 20.6566 26.2587 20.5129 26.6667 20.5129C27.0748 20.5129 27.4225 20.6566 27.71 20.9438C27.9973 21.2313 28.1409 21.5791 28.1409 21.9871C28.1409 22.3954 27.9973 22.7432 27.71 23.0304C27.4225 23.3179 27.0748 23.4617 26.6667 23.4617ZM20 30C19.592 30 19.2442 29.8563 18.9567 29.5688C18.6695 29.2816 18.5259 28.9339 18.5259 28.5259C18.5259 28.1175 18.6695 27.7697 18.9567 27.4825C19.2442 27.195 19.592 27.0513 20 27.0513C20.4081 27.0513 20.7559 27.195 21.0434 27.4825C21.3306 27.7697 21.4742 28.1175 21.4742 28.5259C21.4742 28.9339 21.3306 29.2816 21.0434 29.5688C20.7559 29.8563 20.4081 30 20 30ZM13.3334 30C12.9253 30 12.5775 29.8563 12.29 29.5688C12.0028 29.2816 11.8592 28.9339 11.8592 28.5259C11.8592 28.1175 12.0028 27.7697 12.29 27.4825C12.5775 27.195 12.9253 27.0513 13.3334 27.0513C13.7414 27.0513 14.0892 27.195 14.3767 27.4825C14.6639 27.7697 14.8075 28.1175 14.8075 28.5259C14.8075 28.9339 14.6639 29.2816 14.3767 29.5688C14.0892 29.8563 13.7414 30 13.3334 30ZM26.6667 30C26.2587 30 25.9109 29.8563 25.6234 29.5688C25.3362 29.2816 25.1925 28.9339 25.1925 28.5259C25.1925 28.1175 25.3362 27.7697 25.6234 27.4825C25.9109 27.195 26.2587 27.0513 26.6667 27.0513C27.0748 27.0513 27.4225 27.195 27.71 27.4825C27.9973 27.7697 28.1409 28.1175 28.1409 28.5259C28.1409 28.9339 27.9973 29.2816 27.71 29.5688C27.4225 29.8563 27.0748 30 26.6667 30Z" fill="#1D5AD4"/>
</g>
</svg>
