<svg width="160" height="80" viewBox="0 0 160 80" fill="none" xmlns="http://www.w3.org/2000/svg">
<rect width="160" height="80" rx="20" fill="white"/>
<path d="M75.5691 25.9062V31.6484H79.2331V33.4531H75.5691V39.6055H73.4362V25.9062H75.5691ZM68.487 27.4922V29.2695H59.8464V36.3789C64.7273 36.3789 67.5027 36.2285 70.7566 35.5586L71.03 37.3359C67.612 38.0195 64.7136 38.1836 59.6003 38.1836H57.7136V27.4922H68.487ZM75.8152 40.9727V42.7227H62.4714V48.1367H76.2527V49.8867H60.3112V40.9727H75.8152ZM100.302 25.9062V50.2148H98.1419V25.9062H100.302ZM93.1106 28.5586C93.0833 35.5586 89.8294 41.7383 81.6809 45.6484L80.5052 43.8984C87.0813 40.7812 90.4309 36.1191 90.9231 30.3086H81.6263V28.5586H93.1106Z" fill="black"/>
</svg>
