<svg width="160" height="80" viewBox="0 0 160 80" fill="none" xmlns="http://www.w3.org/2000/svg">
<rect width="160" height="80" rx="20" fill="white"/>
<path d="M76.0612 25.6328V31.1289H79.4245V33.9727H76.0612V39.5508H72.5612V25.6328H76.0612ZM68.3777 27.1641V29.9531H60.7761V35.6953C65.2741 35.6953 67.7487 35.5312 70.5378 34.957L70.8933 37.7461C67.7761 38.4023 64.905 38.5664 59.3816 38.5664H57.2761V27.1641H68.3777ZM76.2253 40.7539V43.543H63.3191V47.4531H76.6902V50.2422H59.7917V40.7539H76.2253ZM100.876 25.6328V50.5156H97.3489V25.6328H100.876ZM93.4114 28.2305C93.4114 35.7773 90.7591 42.0391 81.8723 46.25L80.0403 43.4609C86.4661 40.4258 89.2962 36.4883 89.8567 30.9648H81.3802V28.2305H93.4114Z" fill="#F230C9"/>
</svg>
