<svg width="168" height="64" viewBox="0 0 168 64" fill="none" xmlns="http://www.w3.org/2000/svg">
<rect width="168" height="64" rx="20" fill="#1D5AD4"/>
<path d="M65.2884 17.2422V49.3047H60.7532V17.2422H65.2884ZM56.0071 20.0547V23.7109H44.9329V37.8789C50.6634 37.8613 54.179 37.7383 58.222 37L58.6438 40.6914C54.2141 41.5352 50.136 41.6758 43.2102 41.6758H40.4329V20.0547H56.0071ZM80.7051 25.9609C80.6699 30.8477 83.2715 36.4727 88.5449 38.8984L86.0488 42.4141C82.4805 40.7793 79.9316 37.5098 78.5254 33.6602C77.084 37.8965 74.4648 41.4824 70.7559 43.2227L68.1543 39.6719C73.498 37.1758 76.1699 31.2344 76.2051 25.9609V23.9922H69.4199V20.3359H87.1387V23.9922H80.7051V25.9609ZM94.1348 17.2422V29.4414H98.8457V33.2031H94.1348V49.2344H89.6348V17.2422H94.1348ZM126.075 17.2773V40.2695H121.575V17.2773H126.075ZM126.919 45.0859V48.6719H104.63V37.9492H109.165V45.0859H126.919ZM108.532 19.3164C113.454 19.3164 117.286 22.6914 117.286 27.3672C117.286 32.1484 113.454 35.4883 108.532 35.4883C103.61 35.4883 99.778 32.1484 99.778 27.3672C99.778 22.6914 103.61 19.3164 108.532 19.3164ZM108.532 23.2188C106.036 23.1836 104.137 24.7656 104.173 27.3672C104.137 30.0391 106.036 31.5859 108.532 31.5859C110.958 31.5859 112.856 30.0391 112.856 27.3672C112.856 24.7656 110.958 23.1836 108.532 23.2188Z" fill="white"/>
</svg>
