<svg width="170" height="66" viewBox="0 0 170 66" fill="none" xmlns="http://www.w3.org/2000/svg">
<rect x="1" y="1" width="168" height="64" rx="20" fill="white" stroke="#1D5AD4" stroke-width="2"/>
<path d="M65.5852 18.5938V49.918H62.8079V18.5938H65.5852ZM56.7259 21.582V23.9023H44.6321V39.7578C50.7141 39.7578 54.722 39.5645 59.3977 38.7383L59.679 41.0586C54.8274 41.9375 50.7141 42.1133 44.386 42.1484H41.8548V21.582H56.7259ZM80.791 28.1914C80.7559 33.2188 84.377 38.7383 88.9121 40.8828L87.3301 43.0625C83.8145 41.3574 80.8438 37.6309 79.4551 33.3945C78.0137 38 74.8672 42.043 71.3691 43.8359L69.6816 41.6562C74.1816 39.4766 78.0488 33.5352 78.084 28.1914V24.1133H70.8066V21.8281H87.8223V24.1133H80.791V28.1914ZM94.3965 18.5938V31.25H99.6348V33.6055H94.3965V49.8477H91.6543V18.5938H94.3965ZM126.407 18.6289V41.4805H123.665V18.6289H126.407ZM127.391 46.8594V49.1797H106.227V39.1602H108.969V46.8594H127.391ZM109.532 20.8086C114.208 20.8086 117.723 23.9727 117.723 28.4727C117.723 33.043 114.208 36.1719 109.532 36.1719C104.856 36.1719 101.341 33.043 101.341 28.4727C101.341 23.9727 104.856 20.8086 109.532 20.8086ZM109.532 23.2344C106.368 23.2344 104.012 25.4141 104.048 28.4727C104.012 31.6016 106.368 33.7461 109.532 33.7461C112.626 33.7461 115.016 31.6016 115.016 28.4727C115.016 25.4141 112.626 23.2344 109.532 23.2344Z" fill="#1D5AD4"/>
</svg>
