<svg width="460" height="92" viewBox="0 0 460 92" fill="none" xmlns="http://www.w3.org/2000/svg">
<rect x="1" y="1" width="458" height="90" rx="19" fill="white" stroke="#1D5AD4" stroke-width="2"/>
<mask id="mask0_174_817" style="mask-type:alpha" maskUnits="userSpaceOnUse" x="44" y="26" width="40" height="40">
<rect x="44" y="26" width="40" height="40" fill="#D9D9D9"/>
</mask>
<g mask="url(#mask0_174_817)">
<path d="M54 57.6669H59.5771V47.7631H68.4229V57.6669H74V42.6669L64 35.1348L54 42.6669V57.6669ZM51.5 60.1669V41.4169L64 32.0098L76.5 41.4169V60.1669H65.9229V50.2631H62.0771V60.1669H51.5Z" fill="#1D5AD4"/>
</g>
<path d="M126.895 50.3125C132.864 50.3125 136.645 52.1875 136.645 55.4062C136.645 58.5938 132.864 60.4688 126.895 60.4688C120.958 60.4688 117.176 58.5938 117.176 55.4062C117.176 52.1875 120.958 50.3125 126.895 50.3125ZM126.895 52.1875C122.458 52.2188 119.583 53.4375 119.614 55.4062C119.583 57.3438 122.458 58.5312 126.895 58.5312C131.333 58.5312 134.176 57.3438 134.208 55.4062C134.176 53.4375 131.333 52.2188 126.895 52.1875ZM136.426 34.1875V36.5312C136.426 38.7812 136.426 41.0312 135.645 43.9062L133.239 43.625C133.989 40.75 133.989 38.7188 133.989 36.5312V36.1875H117.364V34.1875H136.426ZM139.645 45.7188V47.7188H114.364V45.7188H124.833V40.3438H127.239V45.7188H139.645ZM166.786 54.9062V56.9688H141.349V54.9062H152.786V48.125H144.349V35.0938H163.63V48.125H155.193V54.9062H166.786ZM146.755 37.0625V46.1562H161.255V37.0625H146.755ZM191.396 32.7812V53.1562H188.928V42.5H183.209V40.4688H188.928V32.7812H191.396ZM192.178 57.875V59.9375H173.553V51.3125H176.021V57.875H192.178ZM178.021 38.5C178.021 42.0938 180.803 45.5938 184.865 46.9688L183.584 48.9375C180.443 47.8125 178.021 45.4688 176.834 42.5938C175.631 45.7969 173.068 48.3594 169.771 49.5938L168.49 47.5938C172.584 46.1562 175.553 42.5 175.553 38.5V37.0625H169.271V35.0312H184.24V37.0625H178.021V38.5ZM224.991 52.2188V60.1562H205.866V52.2188H224.991ZM208.304 54.125V58.25H222.585V54.125H208.304ZM226.616 35.0938V37H204.085V35.0938H214.21V32.3438H216.648V35.0938H226.616ZM215.429 38.125C221.179 38.1562 224.429 39.4688 224.429 42.0625C224.429 44.5 221.632 45.7969 216.648 45.9688V48.125H228.085V50.0938H202.773V48.125H214.21V45.9688C209.21 45.7969 206.398 44.5 206.398 42.0625C206.398 39.4688 209.679 38.1562 215.429 38.125ZM215.429 39.8438C211.335 39.875 208.991 40.625 209.023 42.0625C208.991 43.4688 211.335 44.2812 215.429 44.2812C219.491 44.2812 221.835 43.4688 221.835 42.0625C221.835 40.625 219.491 39.875 215.429 39.8438ZM253.695 32.75V60.5312H251.32V32.75H253.695ZM248.258 33.4375V59.0625H245.914V45.5312H242.039V43.3125H245.914V33.4375H248.258ZM242.851 36.3125V38.3438H240.508V51.1875C241.554 51.125 242.554 51.0312 243.476 50.9062L243.633 52.7188C239.258 53.5312 233.414 53.6562 229.789 53.6562L229.476 51.5625L232.414 51.5312V38.3438H230.07V36.3125H242.851ZM234.664 51.5C235.82 51.4688 237.039 51.4219 238.226 51.3438V38.3438H234.664V51.5ZM279.711 32.75V60.5938H277.243V32.75H279.711ZM264.93 34.9062C269.055 34.9375 272.024 38.6875 272.024 44.5938C272.024 50.5 269.055 54.25 264.93 54.25C260.774 54.25 257.836 50.5 257.836 44.5938C257.836 38.6875 260.774 34.9375 264.93 34.9062ZM264.93 37.0938C262.149 37.125 260.211 40.0625 260.211 44.5938C260.211 49.125 262.149 52.0625 264.93 52.0625C267.711 52.0625 269.649 49.125 269.649 44.5938C269.649 40.0625 267.711 37.125 264.93 37.0938ZM293.759 41.2812C293.759 46 297.196 50.7812 301.29 52.5625L299.915 54.5C296.665 53.0156 293.853 49.8125 292.571 45.9688C291.259 50.0469 288.462 53.5938 285.29 55.1875L283.821 53.25C287.79 51.3438 291.259 46.0938 291.29 41.2812V37.6562H284.728V35.625H300.384V37.6562H293.759V41.2812ZM306.728 32.75V60.5312H304.259V32.75H306.728ZM336.275 55.0312V57.0938H310.838V55.0312H322.275V49.7812H314.025V41.2188H330.65V36.8438H313.963V34.8125H333.056V43.2188H316.463V47.75H333.713V49.7812H324.681V55.0312H336.275ZM368.151 32.75V60.5938H365.683V32.75H368.151ZM353.37 34.9062C357.495 34.9375 360.464 38.6875 360.464 44.5938C360.464 50.5 357.495 54.25 353.37 54.25C349.214 54.25 346.276 50.5 346.276 44.5938C346.276 38.6875 349.214 34.9375 353.37 34.9062ZM353.37 37.0938C350.589 37.125 348.651 40.0625 348.651 44.5938C348.651 49.125 350.589 52.0625 353.37 52.0625C356.151 52.0625 358.089 49.125 358.089 44.5938C358.089 40.0625 356.151 37.125 353.37 37.0938ZM397.605 46.5V48.4688H372.261V46.5H383.73V43.25H375.48V34.0625H394.449V36.0312H377.886V41.25H394.636V43.25H386.105V46.5H397.605ZM384.917 50.5C390.886 50.5 394.449 52.3125 394.48 55.5C394.449 58.7188 390.886 60.5 384.917 60.5312C378.917 60.5 375.324 58.7188 375.324 55.5C375.324 52.3125 378.917 50.5 384.917 50.5ZM384.917 52.4375C380.449 52.4375 377.792 53.5938 377.824 55.5C377.792 57.4375 380.449 58.5625 384.917 58.5625C389.324 58.5625 392.011 57.4375 392.011 55.5C392.011 53.5938 389.324 52.4375 384.917 52.4375Z" fill="#1D5AD4"/>
</svg>
