<svg width="460" height="92" viewBox="0 0 460 92" fill="none" xmlns="http://www.w3.org/2000/svg">
<rect x="1" y="1" width="458" height="90" rx="19" fill="white" stroke="#1D5AD4" stroke-width="2"/>
<mask id="mask0_174_774" style="mask-type:alpha" maskUnits="userSpaceOnUse" x="44" y="26" width="40" height="40">
<rect x="44" y="26" width="40" height="40" fill="#D9D9D9"/>
</mask>
<g mask="url(#mask0_174_774)">
<path d="M50.6666 61V41L64 31L77.3333 41V61H67.3333V49.3333H60.6666V61H50.6666Z" fill="#1D5AD4"/>
</g>
<path d="M127.52 50.1562C133.739 50.1562 137.645 52.125 137.676 55.5312C137.645 58.875 133.739 60.875 127.52 60.875C121.364 60.875 117.395 58.875 117.395 55.5312C117.395 52.125 121.364 50.1562 127.52 50.1562ZM127.52 53.125C123.614 53.125 121.364 53.9375 121.364 55.5312C121.364 57.0625 123.614 57.8438 127.52 57.8438C131.426 57.8438 133.708 57.0625 133.708 55.5312C133.708 53.9375 131.426 53.125 127.52 53.125ZM137.52 33.7188V36.0312C137.52 38.2812 137.52 40.7188 136.708 43.6562L132.801 43.2812C133.426 40.7031 133.504 38.7812 133.551 36.8438H117.676V33.7188H137.52ZM140.583 45.125V48.3438H114.77V45.125H124.458V40.1562H128.395V45.125H140.583ZM167.755 54.2812V57.5625H141.724V54.2812H152.693V48.4688H144.474V34.5312H164.849V48.4688H156.661V54.2812H167.755ZM148.411 37.7188V45.3438H160.911V37.7188H148.411ZM192.709 32.4688V53.2188H188.74V43.0312H184.084V39.8125H188.74V32.4688H192.709ZM193.396 57.1875V60.375H173.834V51.4062H177.834V57.1875H193.396ZM179.49 38.0312C179.49 41.3125 181.49 44.8438 186.021 46.3125L184.053 49.4688C180.896 48.4531 178.74 46.375 177.49 43.7812C176.24 46.6562 173.974 48.9375 170.615 50.0625L168.584 46.8125C173.271 45.3438 175.396 41.625 175.428 38V37.5625H169.709V34.375H185.146V37.5625H179.49V38.0312ZM225.335 52.2188V60.5625H205.491V52.2188H225.335ZM209.429 55.1875V57.5938H221.429V55.1875H209.429ZM227.085 34.4688V37.4688H203.741V34.4688H213.46V32.1875H217.46V34.4688H227.085ZM215.46 38.1875C221.616 38.2188 225.023 39.5625 225.023 42.25C225.023 44.625 222.351 45.9844 217.46 46.25V47.6562H228.429V50.7812H202.491V47.6562H213.46V46.25C208.585 45.9844 205.866 44.625 205.898 42.25C205.866 39.5625 209.335 38.2188 215.46 38.1875ZM215.46 40.875C211.866 40.875 210.148 41.25 210.148 42.25C210.148 43.2188 211.866 43.625 215.46 43.625C219.085 43.625 220.741 43.2188 220.741 42.25C220.741 41.25 219.085 40.875 215.46 40.875ZM254.383 32.4375V60.875H250.539V32.4375H254.383ZM248.633 33V59.5312H244.851V46.3438H242.101V42.7812H244.851V33H248.633ZM242.758 35.6562V38.875H240.945V50.6875C241.742 50.625 242.508 50.5469 243.226 50.4375L243.508 53.3125C239.008 54.2812 233.195 54.375 229.633 54.375L229.195 51.0938H231.57V38.875H229.726V35.6562H242.758ZM235.101 51.0312L237.32 50.9375V38.875H235.101V51.0312ZM280.336 32.4375V60.9375H276.305V32.4375H280.336ZM264.899 34.4375C269.18 34.4375 272.368 38.375 272.368 44.5625C272.368 50.8125 269.18 54.7188 264.899 54.7188C260.524 54.7188 257.336 50.8125 257.368 44.5625C257.336 38.375 260.524 34.4375 264.899 34.4375ZM264.899 38.0312C262.68 38.0312 261.211 40.3438 261.211 44.5625C261.211 48.8125 262.68 51.0938 264.899 51.0938C267.055 51.0938 268.524 48.8125 268.524 44.5625C268.524 40.3438 267.055 38.0312 264.899 38.0312ZM294.571 40.1875C294.571 44.7812 296.915 49.6875 301.696 51.6875L299.54 54.8125C296.181 53.3906 293.868 50.5625 292.603 47.0938C291.306 50.8594 288.946 53.9844 285.603 55.5312L283.321 52.375C288.04 50.2812 290.478 45 290.478 40.1875V38.4375H284.446V35.1875H300.509V38.4375H294.571V40.1875ZM307.353 32.4375V60.875H303.321V32.4375H307.353ZM336.588 54.4375V57.7188H310.556V54.4375H321.525V50.1562H313.556V40.5938H329.65V37.4688H313.525V34.2812H333.588V43.7188H317.556V46.9062H334.244V50.1562H325.494V54.4375H336.588ZM368.12 32.4375V60.9375H364.089V32.4375H368.12ZM352.683 34.4375C356.964 34.4375 360.151 38.375 360.151 44.5625C360.151 50.8125 356.964 54.7188 352.683 54.7188C348.308 54.7188 345.12 50.8125 345.151 44.5625C345.12 38.375 348.308 34.4375 352.683 34.4375ZM352.683 38.0312C350.464 38.0312 348.995 40.3438 348.995 44.5625C348.995 48.8125 350.464 51.0938 352.683 51.0938C354.839 51.0938 356.308 48.8125 356.308 44.5625C356.308 40.3438 354.839 38.0312 352.683 38.0312ZM397.324 45.875V49H371.324V45.875H382.386V43.4375H374.48V33.6875H394.199V36.7812H378.449V40.3125H394.355V43.4375H386.292V45.875H397.324ZM384.261 50.4375C390.417 50.4375 394.136 52.3125 394.167 55.6875C394.136 59 390.417 60.9062 384.261 60.9062C378.042 60.9062 374.292 59 374.292 55.6875C374.292 52.3125 378.042 50.4375 384.261 50.4375ZM384.261 53.4688C380.324 53.4688 378.324 54.2188 378.355 55.6875C378.324 57.1875 380.324 57.875 384.261 57.875C388.105 57.875 390.136 57.1875 390.167 55.6875C390.136 54.2188 388.105 53.4688 384.261 53.4688Z" fill="#1D5AD4"/>
</svg>
