<svg width="160" height="64" viewBox="0 0 160 64" fill="none" xmlns="http://www.w3.org/2000/svg">
<rect width="160" height="64" rx="20" fill="#1D5AD4"/>
<path d="M52.7454 46V26.9102H57.9485V46H52.7454ZM55.347 24.4141C53.7649 24.4141 52.4993 23.2188 52.4993 21.7773C52.4993 20.3008 53.7649 19.1055 55.347 19.1055C56.8938 19.1055 58.1595 20.3008 58.1595 21.7773C58.1595 23.2188 56.8938 24.4141 55.347 24.4141ZM84.6855 33.2734C84.6855 41.5703 79.5176 46.3516 72.8027 46.3516C66.0176 46.3516 60.8848 41.5352 60.8848 33.2734C60.8848 24.9766 66.0176 20.1953 72.8027 20.1953C79.5176 20.1953 84.6855 24.9766 84.6855 33.2734ZM79.3066 33.2734C79.3066 27.8242 76.7402 24.8711 72.8027 24.8711C68.8652 24.8711 66.2637 27.8242 66.2637 33.2734C66.2637 38.7227 68.8652 41.6758 72.8027 41.6758C76.7402 41.6758 79.3066 38.7227 79.3066 33.2734ZM101.579 27.8242C101.368 25.8203 99.7507 24.625 97.1843 24.625C94.5124 24.625 93.0359 25.8555 93.0007 27.543C92.9655 29.3711 94.8991 30.2148 97.0788 30.707L99.364 31.2695C103.723 32.2539 106.993 34.4688 106.993 38.7227C106.993 43.3984 103.337 46.3516 97.1491 46.3516C90.9968 46.3516 87.0593 43.5039 86.9187 38.0547H92.0515C92.2273 40.6211 94.2663 41.9219 97.0788 41.9219C99.8562 41.9219 101.649 40.6211 101.649 38.7227C101.649 37 100.067 36.1914 97.2898 35.4883L94.5124 34.8203C90.2234 33.7656 87.5866 31.6211 87.5866 27.8945C87.5866 23.2539 91.6648 20.1953 97.2195 20.1953C102.844 20.1953 106.571 23.3242 106.641 27.8242H101.579Z" fill="white"/>
</svg>
