<svg width="162" height="66" viewBox="0 0 162 66" fill="none" xmlns="http://www.w3.org/2000/svg">
<rect x="1" y="1" width="160" height="64" rx="20" fill="white" stroke="#1D5AD4" stroke-width="2"/>
<path d="M55.7141 47V27.9102H58.7376V47H55.7141ZM57.2259 24.7461C56.0657 24.7461 55.1165 23.8672 55.1165 22.7422C55.1165 21.6172 56.0657 20.7383 57.2259 20.7383C58.386 20.7383 59.3704 21.6172 59.3704 22.7422C59.3704 23.8672 58.386 24.7461 57.2259 24.7461ZM84.7363 34.2734C84.7363 42.3242 79.9902 47.3516 73.4863 47.3516C66.9473 47.3516 62.2363 42.3242 62.2363 34.2734C62.2363 26.2227 66.9473 21.1953 73.4863 21.1953C79.9902 21.1953 84.7363 26.2227 84.7363 34.2734ZM81.6777 34.2734C81.6777 27.6992 78.0918 24.1484 73.4863 24.1484C68.8809 24.1484 65.2949 27.6992 65.2949 34.2734C65.2949 40.8477 68.8809 44.3984 73.4863 44.3984C78.0918 44.3984 81.6777 40.8477 81.6777 34.2734ZM102.544 27.9453C102.262 25.4492 99.9773 24.0078 96.9187 24.0078C93.5437 24.0078 91.3288 25.7656 91.3288 28.1914C91.3288 30.8633 94.3171 31.8477 96.2507 32.3398L98.782 33.043C101.524 33.7461 105.989 35.3281 105.989 40.0742C105.989 44.2227 102.649 47.457 96.7429 47.457C91.2585 47.457 87.8484 44.6094 87.5671 40.3906H90.8015C91.0827 43.2383 93.7195 44.5742 96.7429 44.5742C100.259 44.5742 102.895 42.7812 102.895 40.0039C102.895 37.543 100.54 36.5938 97.8679 35.8203L94.739 34.9766C90.7312 33.8164 88.2702 31.7773 88.2702 28.332C88.2702 24.043 92.1023 21.1953 97.0241 21.1953C101.946 21.1953 105.497 24.0781 105.637 27.9453H102.544Z" fill="#1D5AD4"/>
</svg>
