<svg width="160" height="80" viewBox="0 0 160 80" fill="none" xmlns="http://www.w3.org/2000/svg">
<rect width="160" height="80" rx="20" fill="white"/>
<path d="M67.4955 35.6133V37.418H63.558V50.2148H61.4252V25.9062H63.558V35.6133H67.4955ZM47.8901 28.3125V42.2305C51.4448 42.2168 55.0678 41.9434 59.0737 41.1094L59.3471 42.9414C55.1635 43.7891 51.3901 44.0352 47.6987 44.0352H45.7573V28.3125H47.8901ZM90.5332 37.2812V39.0586H80.498V41.6562C85.0918 41.8477 87.7988 43.3516 87.8262 45.9219C87.7988 48.6289 84.6816 50.1602 79.459 50.1602C74.1816 50.1602 71.0645 48.6289 71.0645 45.9219C71.0645 43.3516 73.7578 41.8477 78.3926 41.6562V39.0586H68.3848V37.2812H90.5332ZM79.459 43.2969C75.5488 43.3242 73.2246 44.2812 73.252 45.9219C73.2246 47.5352 75.5488 48.4922 79.459 48.4922C83.3145 48.4922 85.666 47.5352 85.666 45.9219C85.666 44.2812 83.3145 43.3242 79.459 43.2969ZM88.5645 27.0547V28.8047H80.8535C80.9902 31.5391 85.0098 33.6582 89.3027 34.1094L88.5098 35.8047C84.5312 35.3262 80.7988 33.5488 79.459 30.8281C78.1328 33.5488 74.4141 35.3262 70.4082 35.8047L69.6426 34.1094C73.8535 33.6582 77.9004 31.5391 78.0645 28.8047H70.4082V27.0547H88.5645ZM112.86 25.9062V50.2148H110.782V25.9062H112.86ZM107.965 26.4258V48.9844H105.915V37.1719H102.797C102.565 41.9023 100.555 44.8555 97.5474 44.8555C94.3755 44.8555 92.3248 41.5742 92.3248 36.4062C92.3248 31.2383 94.3755 27.957 97.5474 27.957C100.501 27.957 102.497 30.8145 102.77 35.3945H105.915V26.4258H107.965ZM97.5474 29.9805C95.5787 29.9805 94.3209 32.4414 94.3482 36.4062C94.3209 40.3438 95.5787 42.832 97.5474 42.8047C99.5162 42.832 100.774 40.3438 100.774 36.4062C100.774 32.4414 99.5162 29.9805 97.5474 29.9805Z" fill="black"/>
</svg>
