<svg width="160" height="80" viewBox="0 0 160 80" fill="none" xmlns="http://www.w3.org/2000/svg">
<rect width="160" height="80" rx="20" fill="white"/>
<path d="M67.6596 35.0664V37.9102H64.1323V50.4609H60.6323V25.6328H64.1323V35.0664H67.6596ZM48.7651 28.0117V41.4922C51.9506 41.4512 55.3686 41.1504 58.9643 40.4258L59.3198 43.3242C55.1635 44.1719 51.1166 44.3906 47.4526 44.3906H45.2924V28.0117H48.7651ZM90.834 36.9258V39.7422H81.209V41.5742C85.543 41.9023 88.0996 43.4609 88.127 46.0312C88.0996 48.9023 84.8457 50.5156 79.459 50.5156C73.9902 50.5156 70.7363 48.9023 70.7363 46.0312C70.7363 43.4473 73.3203 41.8887 77.7363 41.5742V39.7422H68.1387V36.9258H90.834ZM79.459 44.1445C76.0137 44.1719 74.2637 44.7734 74.291 46.0312C74.2637 47.2344 76.0137 47.8906 79.459 47.8906C82.8223 47.8906 84.5996 47.2344 84.627 46.0312C84.5996 44.7734 82.8223 44.1719 79.459 44.1445ZM88.7832 26.6992V29.4336H82.0293C82.6172 31.1836 85.1465 32.8652 89.877 33.2617L88.6465 35.9961C83.957 35.5449 80.7852 33.7676 79.459 31.3477C78.1465 33.7676 75.0293 35.5449 70.2988 35.9961L69.1504 33.2617C73.7578 32.8652 76.3008 31.1699 76.9434 29.4336H70.2168V26.6992H88.7832ZM113.352 25.6328V50.5156H110.016V25.6328H113.352ZM108.157 25.9883V49.3672H104.876V37.6094H102.879C102.551 42.5039 100.473 45.457 97.4107 45.457C94.1295 45.457 91.9966 42.0117 91.9966 36.4062C91.9966 30.8281 94.1295 27.4102 97.4107 27.4102C100.405 27.4102 102.456 30.1992 102.852 34.8477H104.876V25.9883H108.157ZM97.4107 30.6914C96.0162 30.6914 95.1959 32.6055 95.2232 36.4062C95.1959 40.2344 96.0162 42.1211 97.4107 42.0938C98.8326 42.1211 99.6802 40.2344 99.6802 36.4062C99.6802 32.6055 98.8326 30.6914 97.4107 30.6914Z" fill="#F230C9"/>
</svg>
