<svg width="160" height="80" viewBox="0 0 160 80" fill="none" xmlns="http://www.w3.org/2000/svg">
<rect width="160" height="80" rx="20" fill="white"/>
<path d="M42.7626 27.4102V29.1875H33.2743V32.2227H42.079V33.9453H33.2743V37.1719C38.4559 37.1992 41.327 37.0762 44.7587 36.4883L44.9774 38.2383C41.4227 38.8672 38.4423 38.9219 33.0829 38.9219H31.1141V27.4102H42.7626ZM49.7626 25.9336V40.4258H47.6298V25.9336H49.7626ZM49.7626 41.6289V49.8867H33.9579V41.6289H49.7626ZM36.0634 43.3516V48.1367H47.6571V43.3516H36.0634ZM80.6348 25.9062V50.2148H78.5566V37.3359H75.166V48.9844H73.1152V26.4258H75.166V35.5586H78.5566V25.9062H80.6348ZM69.998 28.75V43.6797H60.7012V28.75H69.998ZM62.7246 30.4727V41.957H67.9746V30.4727H62.7246ZM92.2701 30.9922C92.2701 34.082 94.9224 36.8164 98.5591 37.8555L97.5474 39.5234C94.6763 38.6758 92.3795 36.8301 91.2584 34.4102C90.192 37.0762 87.9224 39.168 84.9966 40.1523L83.9302 38.457C87.5396 37.3086 90.1373 34.3281 90.1373 30.9922V30.6641H84.5318V28.9414H90.1373V25.9062H92.2974V28.9414H97.8482V30.6641H92.2701V30.9922ZM103.508 25.9336V40.8359H101.376V25.9336H103.508ZM95.3873 41.3555C100.473 41.3281 103.563 42.9414 103.59 45.7305C103.563 48.5742 100.473 50.1602 95.3873 50.1602C90.274 50.1602 87.1841 48.5742 87.1841 45.7305C87.1841 42.9414 90.274 41.3281 95.3873 41.3555ZM95.3873 43.0508C91.5865 43.0508 89.3443 44.0625 89.3443 45.7305C89.3443 47.4531 91.5865 48.4648 95.3873 48.4648C99.1607 48.4648 101.458 47.4531 101.458 45.7305C101.458 44.0625 99.1607 43.0508 95.3873 43.0508ZM132.986 42.9414V49.8867H116.252V42.9414H132.986ZM118.384 44.6094V48.2188H130.881V44.6094H118.384ZM134.408 27.957V29.625H114.693V27.957H123.552V25.5508H125.685V27.957H134.408ZM124.619 30.6094C129.65 30.6367 132.494 31.7852 132.494 34.0547C132.494 36.1875 130.047 37.3223 125.685 37.4727V39.3594H135.693V41.082H113.545V39.3594H123.552V37.4727C119.177 37.3223 116.716 36.1875 116.716 34.0547C116.716 31.7852 119.588 30.6367 124.619 30.6094ZM124.619 32.1133C121.037 32.1406 118.986 32.7969 119.013 34.0547C118.986 35.2852 121.037 35.9961 124.619 35.9961C128.174 35.9961 130.224 35.2852 130.224 34.0547C130.224 32.7969 128.174 32.1406 124.619 32.1133Z" fill="black"/>
</svg>
