<svg width="380" height="92" viewBox="0 0 380 92" fill="none" xmlns="http://www.w3.org/2000/svg">
<rect x="1" y="1" width="378" height="90" rx="19" fill="white" stroke="#1D5AD4" stroke-width="2"/>
<mask id="mask0_174_746" style="mask-type:alpha" maskUnits="userSpaceOnUse" x="44" y="26" width="40" height="40">
<rect x="44" y="26" width="40" height="40" fill="#D9D9D9"/>
</mask>
<g mask="url(#mask0_174_746)">
<path d="M64.8333 45.9165C65.6389 45.0276 66.2569 44.0137 66.6875 42.8748C67.1181 41.7359 67.3333 40.5554 67.3333 39.3332C67.3333 38.1109 67.1181 36.9304 66.6875 35.7915C66.2569 34.6526 65.6389 33.6387 64.8333 32.7498C66.5 32.9721 67.8889 33.7082 69 34.9582C70.1111 36.2082 70.6667 37.6665 70.6667 39.3332C70.6667 40.9998 70.1111 42.4582 69 43.7082C67.8889 44.9582 66.5 45.6943 64.8333 45.9165ZM74 59.3332V54.3332C74 53.3332 73.7778 52.3818 73.3333 51.479C72.8889 50.5762 72.3056 49.7776 71.5833 49.0832C73 49.5832 74.3125 50.229 75.5208 51.0207C76.7292 51.8123 77.3333 52.9165 77.3333 54.3332V59.3332H74ZM77.3333 47.6665V44.3332H74V40.9998H77.3333V37.6665H80.6667V40.9998H84V44.3332H80.6667V47.6665H77.3333ZM57.3333 45.9998C55.5 45.9998 53.9306 45.3471 52.625 44.0415C51.3194 42.7359 50.6667 41.1665 50.6667 39.3332C50.6667 37.4998 51.3194 35.9304 52.625 34.6248C53.9306 33.3193 55.5 32.6665 57.3333 32.6665C59.1667 32.6665 60.7361 33.3193 62.0417 34.6248C63.3472 35.9304 64 37.4998 64 39.3332C64 41.1665 63.3472 42.7359 62.0417 44.0415C60.7361 45.3471 59.1667 45.9998 57.3333 45.9998ZM44 59.3332V54.6665C44 53.7221 44.2431 52.854 44.7292 52.0623C45.2153 51.2707 45.8611 50.6665 46.6667 50.2498C48.3889 49.3887 50.1389 48.7429 51.9167 48.3123C53.6944 47.8818 55.5 47.6665 57.3333 47.6665C59.1667 47.6665 60.9722 47.8818 62.75 48.3123C64.5278 48.7429 66.2778 49.3887 68 50.2498C68.8056 50.6665 69.4514 51.2707 69.9375 52.0623C70.4236 52.854 70.6667 53.7221 70.6667 54.6665V59.3332H44Z" fill="#1D5AD4"/>
</g>
<path d="M132.576 34.0625V37.25H122.794V39.4688H131.732V42.5312H122.794V44.875C127.794 44.8594 130.966 44.7812 134.576 44.1875L134.982 47.2812C130.919 47.9688 127.326 48.0312 121.232 48.0312H118.794V34.0625H132.576ZM141.044 32.4688V49.3438H137.044V32.4688H141.044ZM141.044 50.5V60.5625H121.982V50.5H141.044ZM125.919 53.5938V57.375H137.138V53.5938H125.919ZM175.639 32.4375V60.875H171.827V46.5312H169.264V59.5625H165.483V32.8438H169.264V43.2812H171.827V32.4375H175.639ZM163.108 35.375V53.7188H151.796V35.375H163.108ZM155.514 38.5312V50.5938H159.389V38.5312H155.514ZM194.874 35.4062V38.5625H189.062C189.156 41.4531 191.343 44.4062 195.906 45.5938L194.062 48.6562C190.781 47.8125 188.468 45.9844 187.156 43.625C185.874 46.25 183.546 48.3281 180.156 49.2812L178.249 46.1875C182.781 44.9375 184.921 41.7344 185.031 38.5625H179.218V35.4062H185.031V32.4688H189.093V35.4062H194.874ZM201.812 32.4688V49.625H197.812V32.4688H201.812ZM192.124 50.0625C198.156 50.0625 201.874 52.0625 201.906 55.4688C201.874 58.9062 198.156 60.875 192.124 60.875C186.062 60.875 182.343 58.9062 182.343 55.4688C182.343 52.0625 186.062 50.0625 192.124 50.0625ZM192.124 53.1562C188.312 53.1562 186.343 53.9375 186.343 55.4688C186.343 57.0312 188.312 57.8438 192.124 57.8438C195.937 57.8438 197.968 57.0312 197.968 55.4688C197.968 53.9375 195.937 53.1562 192.124 53.1562ZM234.188 32.4375V43.5625H238.376V46.8438H234.188V60.875H230.251V32.4375H234.188ZM228.313 36.6875V39.875H211.594V36.6875H218.032V32.875H222.032V36.6875H228.313ZM220.032 41.4688C224.188 41.4688 227.282 44.2812 227.282 48.25C227.282 52.2188 224.188 55.0312 220.032 55.0312C215.844 55.0312 212.751 52.2188 212.751 48.25C212.751 44.2812 215.844 41.4688 220.032 41.4688ZM220.032 44.6875C218.032 44.7188 216.563 46.0625 216.563 48.25C216.563 50.4688 218.032 51.7812 220.032 51.75C222.032 51.7812 223.469 50.4688 223.469 48.25C223.469 46.0625 222.032 44.7188 220.032 44.6875ZM262.736 32.4375V60.9375H258.767V45.9375H254.173V42.6875H258.767V32.4375H262.736ZM252.579 34.8125V45.4688H243.736V51.0312C247.658 51 250.986 50.8594 254.642 50.2188L254.954 53.4688C250.736 54.1562 246.861 54.3125 242.111 54.3125H239.767V42.3125H248.704V38.0312H239.704V34.8125H252.579ZM288.221 32.4375V43.3438H292.252V46.625H288.221V60.8125H284.221V32.4375H288.221ZM280.627 35.3438C280.596 43.8438 277.283 51.2188 267.721 55.9062L265.471 52.8438C272.205 49.4688 275.814 44.9375 276.564 38.5938H267.096V35.3438H280.627ZM316.706 32.4375V60.875H312.674V32.4375H316.706ZM308.174 35.4062C308.174 44.0312 305.143 51.1875 294.987 56L292.893 52.8125C300.237 49.3438 303.471 44.8438 304.112 38.5312H294.424V35.4062H308.174Z" fill="#1D5AD4"/>
</svg>
