<svg width="380" height="92" viewBox="0 0 380 92" fill="none" xmlns="http://www.w3.org/2000/svg">
<rect x="1" y="1" width="378" height="90" rx="19" fill="white" stroke="#1D5AD4" stroke-width="2"/>
<mask id="mask0_174_824" style="mask-type:alpha" maskUnits="userSpaceOnUse" x="44" y="26" width="40" height="40">
<rect x="44" y="26" width="40" height="40" fill="#D9D9D9"/>
</mask>
<g mask="url(#mask0_174_824)">
<path d="M64.9937 45.4036C65.7029 44.6323 66.2275 43.7466 66.5675 42.7466C66.9072 41.7466 67.0771 40.7156 67.0771 39.6536C67.0771 38.5917 66.9072 37.5607 66.5675 36.5607C66.2275 35.5607 65.7029 34.675 64.9937 33.9036C66.4573 34.0725 67.6726 34.7045 68.6396 35.7995C69.6062 36.8948 70.0896 38.1795 70.0896 39.6536C70.0896 41.1281 69.6062 42.4128 68.6396 43.5078C67.6726 44.6028 66.4573 45.2348 64.9937 45.4036ZM73.7437 58.1795V54.2691C73.7437 53.3605 73.5589 52.496 73.1892 51.6757C72.8194 50.8555 72.2948 50.1516 71.6154 49.5641C72.8932 49.9893 74.0694 50.5631 75.1442 51.2853C76.2189 52.0075 76.7562 53.0021 76.7562 54.2691V58.1795H73.7437ZM76.7562 47.2499V43.9166H73.4229V41.4166H76.7562V38.0832H79.2562V41.4166H82.5896V43.9166H79.2562V47.2499H76.7562ZM57.9104 45.487C56.3062 45.487 54.9329 44.9159 53.7904 43.7736C52.6482 42.6311 52.0771 41.2578 52.0771 39.6536C52.0771 38.0495 52.6482 36.6763 53.7904 35.5341C54.9329 34.3916 56.3062 33.8203 57.9104 33.8203C59.5146 33.8203 60.8878 34.3916 62.03 35.5341C63.1725 36.6763 63.7437 38.0495 63.7437 39.6536C63.7437 41.2578 63.1725 42.6311 62.03 43.7736C60.8878 44.9159 59.5146 45.487 57.9104 45.487ZM45.4104 58.1795V54.4741C45.4104 53.658 45.6321 52.9021 46.0754 52.2066C46.5187 51.511 47.1111 50.9763 47.8525 50.6024C49.5 49.7949 51.1619 49.1892 52.8383 48.7853C54.5144 48.3814 56.2051 48.1795 57.9104 48.1795C59.6154 48.1795 61.3061 48.3814 62.9825 48.7853C64.6586 49.1892 66.3204 49.7949 67.9679 50.6024C68.7093 50.9763 69.3017 51.511 69.745 52.2066C70.1886 52.9021 70.4104 53.658 70.4104 54.4741V58.1795H45.4104ZM57.9104 42.987C58.8271 42.987 59.6118 42.6606 60.2646 42.0078C60.9173 41.355 61.2437 40.5703 61.2437 39.6536C61.2437 38.737 60.9173 37.9523 60.2646 37.2995C59.6118 36.6467 58.8271 36.3203 57.9104 36.3203C56.9937 36.3203 56.209 36.6467 55.5562 37.2995C54.9035 37.9523 54.5771 38.737 54.5771 39.6536C54.5771 40.5703 54.9035 41.355 55.5562 42.0078C56.209 42.6606 56.9937 42.987 57.9104 42.987ZM47.9104 55.6795H67.9104V54.4741C67.9104 54.1366 67.8126 53.8241 67.6171 53.5366C67.4215 53.2493 67.156 53.0149 66.8204 52.8332C65.3846 52.126 63.9205 51.5902 62.4283 51.2257C60.9358 50.8616 59.4298 50.6795 57.9104 50.6795C56.3907 50.6795 54.8847 50.8616 53.3925 51.2257C51.9 51.5902 50.4358 52.126 49 52.8332C48.6644 53.0149 48.399 53.2493 48.2037 53.5366C48.0082 53.8241 47.9104 54.1366 47.9104 54.4741V55.6795Z" fill="#1D5AD4"/>
</g>
<path d="M131.794 34.4688V36.5H120.951V39.9688H131.013V41.9375H120.951V45.625C126.872 45.6562 130.154 45.5156 134.076 44.8438L134.326 46.8438C130.263 47.5625 126.857 47.625 120.732 47.625H118.482V34.4688H131.794ZM139.794 32.7812V49.3438H137.357V32.7812H139.794ZM139.794 50.7188V60.1562H121.732V50.7188H139.794ZM124.138 52.6875V58.1562H137.388V52.6875H124.138ZM175.077 32.75V60.5312H172.702V45.8125H168.827V59.125H166.483V33.3438H168.827V43.7812H172.702V32.75H175.077ZM162.921 36V53.0625H152.296V36H162.921ZM154.608 37.9688V51.0938H160.608V37.9688H154.608ZM188.374 38.5625C188.374 42.0938 191.406 45.2188 195.562 46.4062L194.406 48.3125C191.124 47.3438 188.499 45.2344 187.218 42.4688C185.999 45.5156 183.406 47.9062 180.062 49.0312L178.843 47.0938C182.968 45.7812 185.937 42.375 185.937 38.5625V38.1875H179.531V36.2188H185.937V32.75H188.406V36.2188H194.749V38.1875H188.374V38.5625ZM201.218 32.7812V49.8125H198.781V32.7812H201.218ZM191.937 50.4062C197.749 50.375 201.281 52.2188 201.312 55.4062C201.281 58.6562 197.749 60.4688 191.937 60.4688C186.093 60.4688 182.562 58.6562 182.562 55.4062C182.562 52.2188 186.093 50.375 191.937 50.4062ZM191.937 52.3438C187.593 52.3438 185.031 53.5 185.031 55.4062C185.031 57.375 187.593 58.5312 191.937 58.5312C196.249 58.5312 198.874 57.375 198.874 55.4062C198.874 53.5 196.249 52.3438 191.937 52.3438ZM234.188 32.75V44.2188H238.844V46.25H234.188V60.5312H231.751V32.75H234.188ZM229.063 37.2188V39.25H212.532V37.2188H219.688V33.0938H222.126V37.2188H229.063ZM220.938 41.5625C224.876 41.5625 227.719 44.1875 227.751 47.9375C227.719 51.6875 224.876 54.3125 220.938 54.3125C216.969 54.3125 214.094 51.6875 214.126 47.9375C214.094 44.1875 216.969 41.5625 220.938 41.5625ZM220.938 43.625C218.344 43.625 216.438 45.4375 216.469 47.9375C216.438 50.4688 218.344 52.25 220.938 52.2188C223.501 52.25 225.376 50.4688 225.407 47.9375C225.376 45.4375 223.501 43.625 220.938 43.625ZM262.704 32.75V60.5938H260.267V45.5H254.861V43.4375H260.267V32.75H262.704ZM253.173 35.3438V45.0625H243.204V51.8125C247.986 51.8125 251.454 51.6719 255.517 50.9062L255.704 52.9688C251.517 53.7188 247.923 53.875 242.892 53.9062H240.767V43.0312H250.798V37.375H240.673V35.3438H253.173ZM288.221 32.75V44.0625H292.721V46.125H288.221V60.5312H285.783V32.75H288.221ZM281.033 35.75C281.033 43.625 277.346 50.7812 268.283 55.25L266.908 53.3125C274.096 49.7344 278.002 44.3906 278.564 37.8125H268.189V35.75H281.033ZM316.706 32.75V60.5312H314.237V32.75H316.706ZM308.487 35.7812C308.456 43.7812 304.737 50.8438 295.424 55.3125L294.081 53.3125C301.596 49.75 305.424 44.4219 305.987 37.7812H295.362V35.7812H308.487Z" fill="#1D5AD4"/>
</svg>
