<svg width="160" height="80" viewBox="0 0 160 80" fill="none" xmlns="http://www.w3.org/2000/svg">
<rect width="160" height="80" rx="20" fill="white"/>
<path d="M43.1591 27.0547V29.8438H34.6005V31.7852H42.4208V34.4648H34.6005V36.5156C38.9755 36.502 41.7509 36.4336 44.9091 35.9141L45.2645 38.6211C41.7098 39.2227 38.5653 39.2773 33.2333 39.2773H31.1005V27.0547H43.1591ZM50.5692 25.6602V40.4258H47.0692V25.6602H50.5692ZM50.5692 41.4375V50.2422H33.8895V41.4375H50.5692ZM37.3348 44.1445V47.4531H47.1513V44.1445H37.3348ZM80.8398 25.6328V50.5156H77.5039V37.9648H75.2617V49.3672H71.9531V25.9883H75.2617V35.1211H77.5039V25.6328H80.8398ZM69.875 28.2031V44.2539H59.9766V28.2031H69.875ZM63.2305 30.9648V41.5195H66.6211V30.9648H63.2305ZM97.6705 28.2305V30.9922H92.5845C92.6666 33.5215 94.5806 36.1055 98.5728 37.1445L96.9595 39.8242C94.0884 39.0859 92.065 37.4863 90.9166 35.4219C89.7955 37.7188 87.7584 39.5371 84.7916 40.3711L83.1236 37.6641C87.0884 36.5703 88.9615 33.7676 89.0572 30.9922H83.9713V28.2305H89.0572V25.6602H92.6119V28.2305H97.6705ZM103.741 25.6602V40.6719H100.241V25.6602H103.741ZM95.2642 41.0547C100.542 41.0547 103.795 42.8047 103.823 45.7852C103.795 48.793 100.542 50.5156 95.2642 50.5156C89.9595 50.5156 86.7056 48.793 86.7056 45.7852C86.7056 42.8047 89.9595 41.0547 95.2642 41.0547ZM95.2642 43.7617C91.9283 43.7617 90.2056 44.4453 90.2056 45.7852C90.2056 47.1523 91.9283 47.8633 95.2642 47.8633C98.6002 47.8633 100.378 47.1523 100.378 45.7852C100.378 44.4453 98.6002 43.7617 95.2642 43.7617ZM132.425 42.9414V50.2422H115.062V42.9414H132.425ZM118.507 45.5391V47.6445H129.007V45.5391H118.507ZM133.957 27.4102V30.0352H113.531V27.4102H122.035V25.4141H125.535V27.4102H133.957ZM123.785 30.6641C129.172 30.6914 132.152 31.8672 132.152 34.2188C132.152 36.2969 129.814 37.4863 125.535 37.7188V38.9492H135.132V41.6836H112.437V38.9492H122.035V37.7188C117.769 37.4863 115.39 36.2969 115.418 34.2188C115.39 31.8672 118.425 30.6914 123.785 30.6641ZM123.785 33.0156C120.64 33.0156 119.136 33.3438 119.136 34.2188C119.136 35.0664 120.64 35.4219 123.785 35.4219C126.957 35.4219 128.406 35.0664 128.406 34.2188C128.406 33.3438 126.957 33.0156 123.785 33.0156Z" fill="#1D5AD4"/>
</svg>
