<svg width="160" height="80" viewBox="0 0 160 80" fill="none" xmlns="http://www.w3.org/2000/svg">
<rect width="160" height="80" rx="20" fill="white"/>
<path d="M52.9689 25.9062V50.2695H50.8088V25.9062H52.9689ZM40.0353 27.793C43.6447 27.8203 46.2423 31.1016 46.2423 36.2695C46.2423 41.4375 43.6447 44.7188 40.0353 44.7188C36.3986 44.7188 33.8283 41.4375 33.8283 36.2695C33.8283 31.1016 36.3986 27.8203 40.0353 27.793ZM40.0353 29.707C37.6017 29.7344 35.9064 32.3047 35.9064 36.2695C35.9064 40.2344 37.6017 42.8047 40.0353 42.8047C42.4689 42.8047 44.1642 40.2344 44.1642 36.2695C44.1642 32.3047 42.4689 29.7344 40.0353 29.707ZM78.7409 37.9375V39.6602H56.5652V37.9375H66.6003V35.0938H59.3816V27.0547H75.9792V28.7773H61.487V33.3438H76.1433V35.0938H68.6784V37.9375H78.7409ZM67.6394 41.4375C72.862 41.4375 75.9792 43.0234 76.0066 45.8125C75.9792 48.6289 72.862 50.1875 67.6394 50.2148C62.3894 50.1875 59.2448 48.6289 59.2448 45.8125C59.2448 43.0234 62.3894 41.4375 67.6394 41.4375ZM67.6394 43.1328C63.7292 43.1328 61.405 44.1445 61.4323 45.8125C61.405 47.5078 63.7292 48.4922 67.6394 48.4922C71.4948 48.4922 73.8464 47.5078 73.8464 45.8125C73.8464 44.1445 71.4948 43.1328 67.6394 43.1328ZM99.0169 25.9062V35.9414H103.091V37.7188H99.0169V50.2148H96.8841V25.9062H99.0169ZM94.5325 29.8164V31.5938H80.0677V29.8164H86.3294V26.207H88.4622V29.8164H94.5325ZM87.4231 33.6172C90.8684 33.6172 93.3567 35.9141 93.3841 39.1953C93.3567 42.4766 90.8684 44.7734 87.4231 44.7734C83.9505 44.7734 81.4348 42.4766 81.4622 39.1953C81.4348 35.9141 83.9505 33.6172 87.4231 33.6172ZM87.4231 35.4219C85.1536 35.4219 83.4856 37.0078 83.513 39.1953C83.4856 41.4102 85.1536 42.9688 87.4231 42.9414C89.6653 42.9688 91.3059 41.4102 91.3333 39.1953C91.3059 37.0078 89.6653 35.4219 87.4231 35.4219ZM123.941 25.9062V50.2148H121.781V25.9062H123.941ZM116.75 28.5586C116.723 35.5586 113.469 41.7383 105.32 45.6484L104.144 43.8984C110.721 40.7812 114.07 36.1191 114.562 30.3086H105.265V28.5586H116.75Z" fill="black"/>
</svg>
