<svg width="160" height="80" viewBox="0 0 160 80" fill="none" xmlns="http://www.w3.org/2000/svg">
<rect width="160" height="80" rx="20" fill="white"/>
<path d="M53.5158 25.6328V50.5703H49.9884V25.6328H53.5158ZM40.008 27.3828C43.7541 27.3828 46.5431 30.8281 46.5431 36.2422C46.5431 41.7109 43.7541 45.1289 40.008 45.1289C36.1798 45.1289 33.3908 41.7109 33.4181 36.2422C33.3908 30.8281 36.1798 27.3828 40.008 27.3828ZM40.008 30.5273C38.0666 30.5273 36.7814 32.5508 36.7814 36.2422C36.7814 39.9609 38.0666 41.957 40.008 41.957C41.8947 41.957 43.1798 39.9609 43.1798 36.2422C43.1798 32.5508 41.8947 30.5273 40.008 30.5273ZM79.0691 37.3906V40.125H56.3191V37.3906H65.9987V35.2578H59.0808V26.7266H76.3347V29.4336H62.5534V32.5234H76.4714V35.2578H69.4167V37.3906H79.0691ZM67.6394 41.3828C73.0261 41.3828 76.28 43.0234 76.3073 45.9766C76.28 48.875 73.0261 50.543 67.6394 50.543C62.198 50.543 58.9167 48.875 58.9167 45.9766C58.9167 43.0234 62.198 41.3828 67.6394 41.3828ZM67.6394 44.0352C64.1941 44.0352 62.4441 44.6914 62.4714 45.9766C62.4441 47.2891 64.1941 47.8906 67.6394 47.8906C71.0027 47.8906 72.78 47.2891 72.8073 45.9766C72.78 44.6914 71.0027 44.0352 67.6394 44.0352ZM99.5911 25.6328V35.3672H103.255V38.2383H99.5911V50.5156H96.1458V25.6328H99.5911ZM94.4505 29.3516V32.1406H79.8216V29.3516H85.4544V26.0156H88.9544V29.3516H94.4505ZM87.2044 33.5352C90.8411 33.5352 93.5481 35.9961 93.5481 39.4688C93.5481 42.9414 90.8411 45.4023 87.2044 45.4023C83.5403 45.4023 80.8333 42.9414 80.8333 39.4688C80.8333 35.9961 83.5403 33.5352 87.2044 33.5352ZM87.2044 36.3516C85.4544 36.3789 84.1692 37.5547 84.1692 39.4688C84.1692 41.4102 85.4544 42.5586 87.2044 42.5312C88.9544 42.5586 90.2122 41.4102 90.2122 39.4688C90.2122 37.5547 88.9544 36.3789 87.2044 36.3516ZM124.515 25.6328V50.5156H120.988V25.6328H124.515ZM117.051 28.2305C117.051 35.7773 114.398 42.0391 105.512 46.25L103.68 43.4609C110.105 40.4258 112.935 36.4883 113.496 30.9648H105.019V28.2305H117.051Z" fill="#00B9FF"/>
</svg>
