<svg width="154" height="66" viewBox="0 0 154 66" fill="none" xmlns="http://www.w3.org/2000/svg">
<rect x="1" y="1" width="152" height="64" rx="20" fill="white" stroke="#1D5AD4" stroke-width="2"/>
<path d="M57.3905 21.5469V47H54.3671L40.5859 27.1719H40.3398V47H37.1757V21.5469H40.2343L54.0155 41.4102H54.2616V21.5469H57.3905ZM69.7135 47.3867C64.5104 47.3867 60.9948 43.4844 60.9948 37.543C60.9948 31.6016 64.5104 27.6641 69.7135 27.6641C74.8815 27.6641 78.362 31.6016 78.362 37.543C78.362 43.4844 74.8815 47.3867 69.7135 47.3867ZM69.7135 44.7148C73.5455 44.7148 75.3385 41.3398 75.3385 37.543C75.3385 33.7461 73.5455 30.3359 69.7135 30.3359C65.8112 30.3359 64.0182 33.7461 64.0182 37.543C64.0182 41.3398 65.8112 44.7148 69.7135 44.7148ZM88.8216 47.3867C84.0756 47.3867 80.7006 43.5547 80.7006 37.5078C80.7006 31.4609 84.0756 27.6641 88.8568 27.6641C92.5482 27.6641 93.7435 29.9141 94.3763 30.9336H94.5873V21.5469H97.6459V47H94.6927V44.082H94.3763C93.7084 45.1367 92.4779 47.3867 88.8216 47.3867ZM89.2435 44.6797C92.724 44.6797 94.6927 41.7266 94.6927 37.4375C94.6927 33.2188 92.7943 30.3711 89.2435 30.3711C85.5873 30.3711 83.7591 33.4648 83.7591 37.4375C83.7591 41.5156 85.6224 44.6797 89.2435 44.6797ZM110.18 47.3867C104.66 47.3867 101.25 43.4844 101.25 37.6133C101.25 31.7422 104.695 27.6641 109.899 27.6641C113.906 27.6641 118.125 30.125 118.125 37.1914V38.457H104.274C104.414 42.5 106.77 44.7148 110.18 44.7148C112.465 44.7148 113.906 43.7305 114.609 42.5352H117.844C116.93 45.418 114.117 47.3867 110.18 47.3867ZM104.309 35.8906H115.066C115.066 32.6914 113.027 30.3359 109.899 30.3359C106.594 30.3359 104.484 32.9375 104.309 35.8906Z" fill="#1D5AD4"/>
</svg>
