<svg width="152" height="64" viewBox="0 0 152 64" fill="none" xmlns="http://www.w3.org/2000/svg">
<rect width="152" height="64" rx="20" fill="#1D5AD4"/>
<path d="M55.7402 20.5469V46H51.1698L39.9902 29.8281H39.7792V46H34.5058V20.5469H39.1464L50.2558 36.7188H50.5019V20.5469H55.7402ZM67.7819 46.3867C62.0163 46.3867 58.4303 42.4141 58.4303 36.5078C58.4303 30.6016 62.0163 26.6641 67.7819 26.6641C73.5475 26.6641 77.1686 30.6016 77.1686 36.5078C77.1686 42.4141 73.5475 46.3867 67.7819 46.3867ZM67.817 42.3438C70.4889 42.3438 71.86 39.8477 71.86 36.5078C71.86 33.1328 70.4889 30.6367 67.817 30.6367C65.11 30.6367 63.7038 33.1328 63.7038 36.5078C63.7038 39.8477 65.11 42.3438 67.817 42.3438ZM86.7494 46.3164C82.39 46.3164 78.9798 42.8359 78.9798 36.4727C78.9798 29.9336 82.5306 26.6641 86.7494 26.6641C89.9486 26.6641 91.4603 28.5625 92.1634 30.1094H92.3392V20.5469H97.5423V46H92.4095V42.9414H92.1634C91.4252 44.5234 89.8431 46.3164 86.7494 46.3164ZM88.3666 42.168C90.9681 42.168 92.4447 39.8828 92.4447 36.4375C92.4447 32.9922 90.9681 30.8125 88.3666 30.8125C85.7298 30.8125 84.3236 33.0977 84.3236 36.4375C84.3236 39.8125 85.7298 42.168 88.3666 42.168ZM109.654 46.3867C103.818 46.3867 100.232 42.5898 100.232 36.543C100.232 30.6367 103.854 26.6641 109.443 26.6641C114.471 26.6641 118.408 29.8281 118.408 36.332V37.8086H105.365C105.365 40.6914 107.088 42.4844 109.76 42.4844C111.518 42.4844 112.783 41.7109 113.311 40.5508H118.268C117.529 44.0664 114.365 46.3867 109.654 46.3867ZM105.365 34.5391H113.486C113.486 32.2188 111.869 30.5664 109.549 30.5664C107.158 30.5664 105.453 32.3418 105.365 34.5391Z" fill="white"/>
</svg>
