<svg width="160" height="80" viewBox="0 0 160 80" fill="none" xmlns="http://www.w3.org/2000/svg">
<rect width="160" height="80" rx="20" fill="white"/>
<path d="M53.0783 25.9062V38.3477H50.9181V35.8047H44.4377V34.1094H50.9181V31.1836H44.7931C43.2619 35.0254 39.4884 37.6094 34.1017 38.8945L33.3361 37.1172C39.297 35.7363 42.7697 32.8242 43.1798 28.9141H34.5666V27.1367H45.5314C45.5314 27.9434 45.4494 28.7227 45.3127 29.4609H50.9181V25.9062H53.0783ZM53.0783 39.4414V45.375H39.5158V48.2188H53.8986V49.9961H37.383V43.7344H50.9181V41.1914H37.3283V39.4414H53.0783ZM77.3464 25.9062V50.2148H75.2956V25.9062H77.3464ZM72.4245 26.5078V48.957H70.4011V36.4336H66.2995V34.6836H70.4011V26.5078H72.4245ZM63.7019 32.8516C63.7019 37.0625 65.5886 41.2461 68.9519 43.1875L67.6394 44.7734C65.2468 43.3379 63.5515 40.7129 62.7175 37.6094C61.8288 40.959 60.0652 43.8164 57.6316 45.3477L56.2644 43.7344C59.655 41.7109 61.6237 37.2812 61.6237 32.8516V30.5547H56.948V28.7773H68.1589V30.5547H63.7019V32.8516ZM99.0169 25.9062V35.9414H103.091V37.7188H99.0169V50.2148H96.8841V25.9062H99.0169ZM94.5325 29.8164V31.5938H80.0677V29.8164H86.3294V26.207H88.4622V29.8164H94.5325ZM87.4231 33.6172C90.8684 33.6172 93.3567 35.9141 93.3841 39.1953C93.3567 42.4766 90.8684 44.7734 87.4231 44.7734C83.9505 44.7734 81.4348 42.4766 81.4622 39.1953C81.4348 35.9141 83.9505 33.6172 87.4231 33.6172ZM87.4231 35.4219C85.1536 35.4219 83.4856 37.0078 83.513 39.1953C83.4856 41.4102 85.1536 42.9688 87.4231 42.9414C89.6653 42.9688 91.3059 41.4102 91.3333 39.1953C91.3059 37.0078 89.6653 35.4219 87.4231 35.4219ZM123.941 25.9062V50.2148H121.781V25.9062H123.941ZM116.75 28.5586C116.723 35.5586 113.469 41.7383 105.32 45.6484L104.144 43.8984C110.721 40.7812 114.07 36.1191 114.562 30.3086H105.265V28.5586H116.75Z" fill="black"/>
</svg>
