<svg width="168" height="60" viewBox="0 0 168 60" fill="none" xmlns="http://www.w3.org/2000/svg">
<rect width="168" height="60" rx="20" fill="#1D5AD4"/>
<path d="M59.8047 18.4082V29.9863H57.3926V27.8027H51.6289V25.9238H57.3926V23.4609H51.9082C50.499 26.9902 47.0713 29.3135 42.0312 30.4941L41.1934 28.5137C46.6523 27.3076 49.6104 24.7812 50.0039 21.4297H42.3867V19.4492H52.6445C52.6445 20.1855 52.5811 20.8838 52.4668 21.5566H57.3926V18.4082H59.8047ZM59.8047 30.9512V36.7148H47.3633V39H60.4902V40.9297H44.9766V34.8867H57.3926V32.8555H44.9258V30.9512H59.8047ZM82.314 18.4082V41.1582H80.0034V18.4082H82.314ZM77.6929 18.8906V40.0156H75.4077V28.4375H71.8784V26.457H75.4077V18.8906H77.6929ZM69.6441 24.7559C69.6441 28.6406 71.2183 32.5254 74.4175 34.3789L72.9702 36.1562C70.7993 34.8613 69.3013 32.5635 68.5269 29.8086C67.7017 32.7793 66.1529 35.3057 63.9312 36.6895L62.4585 34.8867C65.6831 32.9316 67.3335 28.793 67.3335 24.7559V22.9277H63.1441V20.9727H73.5542V22.9277H69.6441V24.7559ZM102.462 18.4082V27.625H106.118V29.6309H102.462V41.1582H100.075V18.4082H102.462ZM98.0948 21.9629V23.9434H84.6123V21.9629H90.2237V18.7129H92.6358V21.9629H98.0948ZM91.4424 25.6191C94.6924 25.6191 97.0791 27.8027 97.1045 30.9004C97.0791 34.0234 94.6924 36.1816 91.4424 36.207C88.167 36.1816 85.7803 34.0234 85.7803 30.9004C85.7803 27.8027 88.167 25.6191 91.4424 25.6191ZM91.4424 27.5996C89.5127 27.5996 88.0655 28.9453 88.0909 30.9004C88.0655 32.8809 89.5127 34.2012 91.4424 34.1758C93.3721 34.2012 94.794 32.8809 94.794 30.9004C94.794 28.9453 93.3721 27.5996 91.4424 27.5996ZM125.606 18.4082V41.1582H123.169V18.4082H125.606ZM118.827 20.8457C118.827 27.498 115.983 33.2871 108.188 37.0195L106.919 35.0645C112.974 32.1826 115.919 28.082 116.389 22.7754H108.01V20.8457H118.827Z" fill="white"/>
</svg>
