<svg width="160" height="80" viewBox="0 0 160 80" fill="none" xmlns="http://www.w3.org/2000/svg">
<rect width="160" height="80" rx="20" fill="white"/>
<path d="M53.6525 25.6328V38.1562H50.1798V36.2422H44.4923V33.5898H50.1798V31.4023H44.7658C43.2209 35.1484 39.6662 37.541 34.1564 38.7305L32.9806 35.8867C38.6818 34.752 41.3205 32.4004 41.7853 29.4062H34.3752V26.5898H45.6408C45.6408 27.3418 45.5861 28.0664 45.4767 28.75H50.1798V25.6328H53.6525ZM53.6525 39.0586V45.8672H40.6369V47.5078H54.1994V50.2695H37.1369V43.2969H50.1525V41.793H37.1095V39.0586H53.6525ZM77.8386 25.6328V50.5156H74.53V25.6328H77.8386ZM72.7527 26.043V49.3672H69.4714V36.9805H66.1902V34.1641H69.4714V26.043H72.7527ZM64.1941 32.3047C64.1941 36.4336 65.4792 40.6172 69.1159 42.6953L67.0652 45.2656C64.8503 43.9531 63.3874 41.7246 62.5534 39.0586C61.6921 41.957 60.1882 44.418 57.905 45.8125L55.7995 43.2422C59.4636 41 60.8308 36.5156 60.8308 32.3047V30.9648H56.7566V28.1758H67.9675V30.9648H64.1941V32.3047ZM99.5911 25.6328V35.3672H103.255V38.2383H99.5911V50.5156H96.1458V25.6328H99.5911ZM94.4505 29.3516V32.1406H79.8216V29.3516H85.4544V26.0156H88.9544V29.3516H94.4505ZM87.2044 33.5352C90.8411 33.5352 93.5481 35.9961 93.5481 39.4688C93.5481 42.9414 90.8411 45.4023 87.2044 45.4023C83.5403 45.4023 80.8333 42.9414 80.8333 39.4688C80.8333 35.9961 83.5403 33.5352 87.2044 33.5352ZM87.2044 36.3516C85.4544 36.3789 84.1692 37.5547 84.1692 39.4688C84.1692 41.4102 85.4544 42.5586 87.2044 42.5312C88.9544 42.5586 90.2122 41.4102 90.2122 39.4688C90.2122 37.5547 88.9544 36.3789 87.2044 36.3516ZM124.515 25.6328V50.5156H120.988V25.6328H124.515ZM117.051 28.2305C117.051 35.7773 114.398 42.0391 105.512 46.25L103.68 43.4609C110.105 40.4258 112.935 36.4883 113.496 30.9648H105.019V28.2305H117.051Z" fill="#00B9FF"/>
</svg>
