<svg width="60" height="60" viewBox="0 0 60 60" fill="none" xmlns="http://www.w3.org/2000/svg">
<mask id="mask0_227_908" style="mask-type:alpha" maskUnits="userSpaceOnUse" x="0" y="0" width="60" height="60">
<rect width="60" height="60" fill="#D9D9D9"/>
</mask>
<g mask="url(#mask0_227_908)">
<path d="M30 40C30.7083 40 31.3021 39.7604 31.7813 39.2812C32.2604 38.8021 32.5 38.2083 32.5 37.5C32.5 36.7917 32.2604 36.1979 31.7813 35.7188C31.3021 35.2396 30.7083 35 30 35C29.2917 35 28.6979 35.2396 28.2188 35.7188C27.7396 36.1979 27.5 36.7917 27.5 37.5C27.5 38.2083 27.7396 38.8021 28.2188 39.2812C28.6979 39.7604 29.2917 40 30 40ZM27.5 30H32.5V17.5H27.5V30ZM30 55C24.2083 53.5417 19.4271 50.2188 15.6562 45.0312C11.8854 39.8438 10 34.0833 10 27.75V12.5L30 5L50 12.5V27.75C50 34.0833 48.1146 39.8438 44.3438 45.0312C40.5729 50.2188 35.7917 53.5417 30 55Z" fill="#1D5AD4"/>
</g>
</svg>
