<svg width="148" height="64" viewBox="0 0 148 64" fill="none" xmlns="http://www.w3.org/2000/svg">
<rect width="148" height="64" rx="20" fill="#1D5AD4"/>
<path d="M71.0905 17.2422V49.2344H66.5553V17.2422H71.0905ZM61.4928 20.582C61.4928 30.2852 58.0827 38.3359 46.6569 43.75L44.3014 40.1641C52.5631 36.2617 56.2018 31.1992 56.9225 24.0977H46.0241V20.582H61.4928ZM94.6634 19.5977V22.8672H75.6791V19.5977H82.9212V17.0312H87.3861V19.5977H94.6634ZM85.1712 23.6055C89.9173 23.6055 93.1517 25.4688 93.1869 28.457C93.1517 30.9004 90.9017 32.5703 87.3861 33.0625V34.5742C89.9525 34.4688 92.5189 34.2754 94.9447 33.9766L95.2611 36.9648C88.4408 38.1602 80.9525 38.2656 75.3275 38.2656L74.7298 34.8555C77.2084 34.8555 80.0033 34.8379 82.9212 34.75V33.0625C79.3529 32.5703 77.1205 30.9004 77.1556 28.457C77.1205 25.4688 80.3197 23.6055 85.1712 23.6055ZM85.1712 26.5938C82.8861 26.5938 81.4798 27.1914 81.4798 28.457C81.4798 29.6172 82.8861 30.2148 85.1712 30.2148C87.3509 30.2148 88.8627 29.6172 88.8627 28.457C88.8627 27.1914 87.3509 26.5938 85.1712 26.5938ZM101.484 17.3125V38.8984H96.9134V17.3125H101.484ZM101.484 40.1641V49.2344H96.9134V43.6094H79.2298V40.1641H101.484Z" fill="white"/>
</svg>
