<svg width="150" height="66" viewBox="0 0 150 66" fill="none" xmlns="http://www.w3.org/2000/svg">
<rect x="1" y="1" width="148" height="64" rx="20" fill="white" stroke="#1D5AD4" stroke-width="2"/>
<path d="M71.3522 18.5938V49.8477H68.5748V18.5938H71.3522ZM62.1061 22.0039C62.0709 31.0039 57.8873 38.9492 47.4108 43.9766L45.8991 41.7266C54.3541 37.7188 58.6608 31.7246 59.2936 24.2539H47.3405V22.0039H62.1061ZM95.558 21.4766V23.5859H77.1009V21.4766H84.9408V18.418H87.683V21.4766H95.558ZM86.347 24.7812C90.8119 24.7812 93.8002 26.5742 93.8353 29.457C93.8002 32.0059 91.392 33.6934 87.683 33.9922V36.0664C90.6009 35.9434 93.5541 35.7148 96.2962 35.3281L96.5072 37.2969C89.6517 38.4219 82.0931 38.5273 76.4681 38.5273L76.0462 36.3125C78.7005 36.3125 81.7591 36.2949 84.9408 36.1719V33.9922C81.2142 33.6758 78.8587 32.0059 78.8939 29.457C78.8587 26.5742 81.8119 24.7812 86.347 24.7812ZM86.347 26.75C83.4291 26.7148 81.4955 27.7695 81.4955 29.457C81.4955 31.0742 83.4291 32.1289 86.347 32.0938C89.2298 32.1289 91.1634 31.0742 91.1634 29.457C91.1634 27.7695 89.2298 26.7148 86.347 26.75ZM101.675 18.6992V39.5117H98.8978V18.6992H101.675ZM101.675 40.9883V49.8477H98.8978V43.2031H80.5814V40.9883H101.675Z" fill="#1D5AD4"/>
</svg>
