<svg width="160" height="80" viewBox="0 0 160 80" fill="none" xmlns="http://www.w3.org/2000/svg">
<rect width="160" height="80" rx="20" fill="white"/>
<path d="M77.3464 25.6328V50.5703H73.8464V37.1445H69.3894V34.3008H73.8464V25.6328H77.3464ZM65.7253 31.8672C65.7253 36.2422 67.7214 40.8086 71.9323 42.6133L69.8816 45.375C66.9968 44.0215 65.0417 41.4102 63.9753 38.2383C62.8952 41.6289 60.9128 44.459 58.0144 45.8945L55.9362 43.1328C60.1198 41.2188 62.1433 36.4883 62.1433 31.8672V30.8281H56.9753V28.0391H70.8933V30.8281H65.7253V31.8672ZM94.095 27.3008V30.0898H89.1458C89.1731 32.9883 90.9095 35.791 94.888 36.9531L93.22 39.6875C90.472 38.8535 88.5716 37.1855 87.4778 35.0391C86.3704 37.5547 84.347 39.5508 81.3528 40.5352L79.5755 37.7734C83.7044 36.4746 85.5638 33.248 85.6184 30.0898H80.5325V27.3008H94.095ZM99.7005 25.6328V31.4023H103.064V34.2461H99.7005V40.3984H96.2005V25.6328H99.7005ZM91.552 40.8906C96.72 40.8633 99.9466 42.6406 99.9466 45.6758C99.9466 48.7109 96.72 50.5156 91.552 50.5156C86.2747 50.5156 83.0208 48.7109 83.0208 45.6758C83.0208 42.6406 86.2747 40.8633 91.552 40.8906ZM91.552 43.5977C88.2708 43.5977 86.4934 44.2812 86.5208 45.6758C86.4934 47.0977 88.2708 47.8086 91.552 47.8086C94.7786 47.8086 96.5013 47.0977 96.5013 45.6758C96.5013 44.2812 94.7786 43.5977 91.552 43.5977Z" fill="#1D5AD4"/>
</svg>
