<svg width="160" height="80" viewBox="0 0 160 80" fill="none" xmlns="http://www.w3.org/2000/svg">
<rect width="160" height="80" rx="20" fill="white"/>
<path d="M76.7175 25.9062V50.2695H74.5573V36.543H69.2253V34.7656H74.5573V25.9062H76.7175ZM64.987 33.125C64.987 37.1719 67.8855 41.5742 71.4402 43.1875L70.155 44.9102C67.3796 43.5566 65.0417 40.6172 63.948 37.2266C62.8269 40.8223 60.4343 43.9395 57.6589 45.4023L56.3464 43.7344C59.8737 42.0117 62.7995 37.4453 62.8269 33.125V30.1992H57.2761V28.4219H70.5652V30.1992H64.987V33.125ZM88.4348 30.5273C88.4348 33.6992 90.8138 36.543 94.3958 37.7188L93.3841 39.4141C90.5813 38.498 88.4622 36.5566 87.4231 34.1094C86.3704 36.8984 84.1282 39.0723 81.2161 40.125L80.1223 38.4023C83.7591 37.1719 86.302 34.0273 86.3294 30.5273V29.4883H80.7786V27.7109H93.9036V29.4883H88.4348V30.5273ZM99.2083 25.9062V32.1133H102.872V33.918H99.2083V40.5898H97.0755V25.9062H99.2083ZM91.4153 41.2461C96.4192 41.2461 99.427 42.8867 99.427 45.6758C99.427 48.5195 96.4192 50.1602 91.4153 50.1602C86.4114 50.1602 83.3489 48.5195 83.3489 45.6758C83.3489 42.8867 86.4114 41.2461 91.4153 41.2461ZM91.4153 42.9688C87.7513 42.9688 85.4817 43.9805 85.5091 45.6758C85.4817 47.4258 87.7513 48.4375 91.4153 48.4375C95.1067 48.4375 97.3489 47.4258 97.3489 45.6758C97.3489 43.9805 95.1067 42.9688 91.4153 42.9688Z" fill="black"/>
</svg>
