<svg width="420" height="92" viewBox="0 0 420 92" fill="none" xmlns="http://www.w3.org/2000/svg">
<rect x="1" y="1" width="418" height="90" rx="19" fill="white" stroke="#1D5AD4" stroke-width="2"/>
<mask id="mask0_174_813" style="mask-type:alpha" maskUnits="userSpaceOnUse" x="44" y="26" width="40" height="40">
<rect x="44" y="26" width="40" height="40" fill="#D9D9D9"/>
</mask>
<g mask="url(#mask0_174_813)">
<path d="M47.3334 65.9998V60.9998H80.6667V65.9998H47.3334ZM51.5 55.8557V50.2307L70.183 31.5736C70.4243 31.3322 70.6984 31.1496 71.005 31.0257C71.3114 30.9018 71.6281 30.8398 71.955 30.8398C72.2928 30.8398 72.6166 30.9018 72.9263 31.0257C73.236 31.1496 73.5202 31.3408 73.7788 31.5994L75.7821 33.6282C76.0407 33.8696 76.2277 34.1451 76.343 34.4548C76.4582 34.7648 76.5159 35.0886 76.5159 35.4261C76.5159 35.7361 76.4582 36.0443 76.343 36.3507C76.2277 36.6573 76.0407 36.94 75.7821 37.1986L57.125 55.8557H51.5ZM71.6509 37.7661L74.0159 35.4007L71.955 33.3398L69.5896 35.7048L71.6509 37.7661Z" fill="#1D5AD4"/>
</g>
<path d="M127.528 50.1562C133.747 50.1562 137.653 52.125 137.684 55.5312C137.653 58.875 133.747 60.875 127.528 60.875C121.372 60.875 117.403 58.875 117.403 55.5312C117.403 52.125 121.372 50.1562 127.528 50.1562ZM127.528 53.125C123.622 53.125 121.372 53.9375 121.372 55.5312C121.372 57.0625 123.622 57.8438 127.528 57.8438C131.434 57.8438 133.716 57.0625 133.716 55.5312C133.716 53.9375 131.434 53.125 127.528 53.125ZM137.528 33.7188V36.0312C137.528 38.2812 137.528 40.7188 136.716 43.6562L132.809 43.2812C133.434 40.7031 133.512 38.7812 133.559 36.8438H117.684V33.7188H137.528ZM140.591 45.125V48.3438H114.778V45.125H124.466V40.1562H128.403V45.125H140.591ZM167.763 54.2812V57.5625H141.732V54.2812H152.701V48.4688H144.482V34.5312H164.857V48.4688H156.669V54.2812H167.763ZM148.419 37.7188V45.3438H160.919V37.7188H148.419ZM192.717 32.4688V53.2188H188.748V43.0312H184.092V39.8125H188.748V32.4688H192.717ZM193.404 57.1875V60.375H173.842V51.4062H177.842V57.1875H193.404ZM179.498 38.0312C179.498 41.3125 181.498 44.8438 186.029 46.3125L184.061 49.4688C180.904 48.4531 178.748 46.375 177.498 43.7812C176.248 46.6562 173.982 48.9375 170.623 50.0625L168.592 46.8125C173.279 45.3438 175.404 41.625 175.436 38V37.5625H169.717V34.375H185.154V37.5625H179.498V38.0312ZM227.093 35.375V38.5938H203.749V35.375H213.468V32.4062H217.437V35.375H227.093ZM228.531 50.8125V54.0625H217.437V60.9062H213.468V54.0625H202.499V50.8125H228.531ZM215.468 39.6875C221.562 39.6875 225.249 41.4062 225.281 44.5625C225.249 47.7188 221.562 49.4375 215.468 49.4375C209.312 49.4375 205.624 47.7188 205.656 44.5625C205.624 41.4062 209.312 39.6875 215.468 39.6875ZM215.468 42.625C211.656 42.6562 209.781 43.25 209.781 44.5625C209.781 45.8438 211.656 46.4688 215.468 46.4688C219.218 46.4688 221.124 45.8438 221.124 44.5625C221.124 43.25 219.218 42.6562 215.468 42.625ZM253.422 32.4375V60.875H249.391V32.4375H253.422ZM244.891 35.4062C244.891 44.0312 241.859 51.1875 231.703 56L229.609 52.8125C236.953 49.3438 240.188 44.8438 240.828 38.5312H231.141V35.4062H244.891ZM289.298 54.3125V57.5625H263.267V54.3125H274.236V49.0625H266.017V34.25H270.017V38.6562H282.423V34.25H286.392V49.0625H278.204V54.3125H289.298ZM270.017 45.875H282.423V41.8438H270.017V45.875ZM314.252 32.4375V60.9375H310.283V45.9375H305.689V42.6875H310.283V32.4375H314.252ZM304.096 34.8125V45.4688H295.252V51.0312C299.174 51 302.502 50.8594 306.158 50.2188L306.471 53.4688C302.252 54.1562 298.377 54.3125 293.627 54.3125H291.283V42.3125H300.221V38.0312H291.221V34.8125H304.096ZM339.737 32.4375V43.3438H343.768V46.625H339.737V60.8125H335.737V32.4375H339.737ZM332.143 35.3438C332.112 43.8438 328.799 51.2188 319.237 55.9062L316.987 52.8438C323.721 49.4688 327.331 44.9375 328.081 38.5938H318.612V35.3438H332.143ZM368.222 32.4375V60.875H364.191V32.4375H368.222ZM359.691 35.4062C359.691 44.0312 356.659 51.1875 346.503 56L344.409 52.8125C351.753 49.3438 354.988 44.8438 355.628 38.5312H345.941V35.4062H359.691Z" fill="#1D5AD4"/>
</svg>
