<svg width="420" height="92" viewBox="0 0 420 92" fill="none" xmlns="http://www.w3.org/2000/svg">
<rect x="1" y="1" width="418" height="90" rx="19" fill="white" stroke="#1D5AD4" stroke-width="2"/>
<mask id="mask0_174_838" style="mask-type:alpha" maskUnits="userSpaceOnUse" x="44" y="26" width="40" height="40">
<rect x="44" y="26" width="40" height="40" fill="#D9D9D9"/>
</mask>
<g mask="url(#mask0_174_838)">
<path d="M47.3334 65.9998V60.9998H80.6667V65.9998H47.3334ZM54 53.3557H56.0609L69.8942 39.5478L68.8463 38.484L67.808 37.4615L54 51.2948V53.3557ZM51.5 55.8557V50.2307L70.183 31.5736C70.4243 31.3322 70.6984 31.1496 71.005 31.0257C71.3114 30.9018 71.6303 30.8398 71.9617 30.8398C72.2934 30.8398 72.6145 30.9018 72.925 31.0257C73.2356 31.1496 73.5202 31.3408 73.7788 31.5994L75.7821 33.6282C76.0407 33.8696 76.2277 34.1461 76.343 34.4578C76.4582 34.7691 76.5159 35.0911 76.5159 35.4236C76.5159 35.7353 76.4574 36.0451 76.3405 36.3532C76.2235 36.6615 76.0374 36.9433 75.7821 37.1986L57.125 55.8557H51.5ZM69.8942 39.5478L68.8463 38.484L67.808 37.4615L69.8942 39.5478Z" fill="#1D5AD4"/>
</g>
<path d="M126.903 50.3125C132.872 50.3125 136.653 52.1875 136.653 55.4062C136.653 58.5938 132.872 60.4688 126.903 60.4688C120.966 60.4688 117.184 58.5938 117.184 55.4062C117.184 52.1875 120.966 50.3125 126.903 50.3125ZM126.903 52.1875C122.466 52.2188 119.591 53.4375 119.622 55.4062C119.591 57.3438 122.466 58.5312 126.903 58.5312C131.341 58.5312 134.184 57.3438 134.216 55.4062C134.184 53.4375 131.341 52.2188 126.903 52.1875ZM136.434 34.1875V36.5312C136.434 38.7812 136.434 41.0312 135.653 43.9062L133.247 43.625C133.997 40.75 133.997 38.7188 133.997 36.5312V36.1875H117.372V34.1875H136.434ZM139.653 45.7188V47.7188H114.372V45.7188H124.841V40.3438H127.247V45.7188H139.653ZM166.794 54.9062V56.9688H141.357V54.9062H152.794V48.125H144.357V35.0938H163.638V48.125H155.201V54.9062H166.794ZM146.763 37.0625V46.1562H161.263V37.0625H146.763ZM191.404 32.7812V53.1562H188.936V42.5H183.217V40.4688H188.936V32.7812H191.404ZM192.186 57.875V59.9375H173.561V51.3125H176.029V57.875H192.186ZM178.029 38.5C178.029 42.0938 180.811 45.5938 184.873 46.9688L183.592 48.9375C180.451 47.8125 178.029 45.4688 176.842 42.5938C175.639 45.7969 173.076 48.3594 169.779 49.5938L168.498 47.5938C172.592 46.1562 175.561 42.5 175.561 38.5V37.0625H169.279V35.0312H184.248V37.0625H178.029V38.5ZM226.624 35.9375V37.9688H204.093V35.9375H214.218V32.5938H216.624V35.9375H226.624ZM228.218 50.75V52.7812H216.624V60.5938H214.218V52.7812H202.781V50.75H228.218ZM215.437 39.5625C221.093 39.5625 224.499 41.2188 224.499 44.2188C224.499 47.1562 221.093 48.8125 215.437 48.8438C209.749 48.8125 206.343 47.1562 206.374 44.2188C206.343 41.2188 209.749 39.5625 215.437 39.5625ZM215.437 41.4375C211.281 41.4375 208.874 42.4688 208.906 44.2188C208.874 45.9375 211.281 46.9375 215.437 46.9375C219.531 46.9375 221.937 45.9375 221.968 44.2188C221.937 42.4688 219.531 41.4375 215.437 41.4375ZM252.766 32.75V60.5312H250.297V32.75H252.766ZM244.547 35.7812C244.516 43.7812 240.797 50.8438 231.484 55.3125L230.141 53.3125C237.656 49.75 241.484 44.4219 242.047 37.7812H231.422V35.7812H244.547ZM289.642 54.9375V56.9688H264.204V54.9375H275.642V48.9375H267.204V34.7188H269.673V39.75H284.111V34.7188H286.517V48.9375H278.048V54.9375H289.642ZM269.673 46.9375H284.111V41.75H269.673V46.9375ZM314.221 32.75V60.5938H311.783V45.5H306.377V43.4375H311.783V32.75H314.221ZM304.689 35.3438V45.0625H294.721V51.8125C299.502 51.8125 302.971 51.6719 307.033 50.9062L307.221 52.9688C303.033 53.7188 299.439 53.875 294.408 53.9062H292.283V43.0312H302.314V37.375H292.189V35.3438H304.689ZM339.737 32.75V44.0625H344.237V46.125H339.737V60.5312H337.299V32.75H339.737ZM332.549 35.75C332.549 43.625 328.862 50.7812 319.799 55.25L318.424 53.3125C325.612 49.7344 329.518 44.3906 330.081 37.8125H319.706V35.75H332.549ZM368.222 32.75V60.5312H365.753V32.75H368.222ZM360.003 35.7812C359.972 43.7812 356.253 50.8438 346.941 55.3125L345.597 53.3125C353.113 49.75 356.941 44.4219 357.503 37.7812H346.878V35.7812H360.003Z" fill="#1D5AD4"/>
</svg>
