<svg width="160" height="80" viewBox="0 0 160 80" fill="none" xmlns="http://www.w3.org/2000/svg">
<rect width="160" height="80" rx="20" fill="white"/>
<path d="M66.019 28.2031V31.0195H45.5932V28.2031H54.0971V25.6055H57.5698V28.2031H66.019ZM67.2768 41.7109V44.5547H57.5698V50.543H54.0971V44.5547H44.4995V41.7109H67.2768ZM55.8471 31.9766C61.1791 31.9766 64.4057 33.4805 64.433 36.2422C64.4057 39.0039 61.1791 40.5078 55.8471 40.5078C50.4604 40.5078 47.2338 39.0039 47.2612 36.2422C47.2338 33.4805 50.4604 31.9766 55.8471 31.9766ZM55.8471 34.5469C52.5112 34.5742 50.8705 35.0938 50.8705 36.2422C50.8705 37.3633 52.5112 37.9102 55.8471 37.9102C59.1284 37.9102 60.7963 37.3633 60.7963 36.2422C60.7963 35.0938 59.1284 34.5742 55.8471 34.5469ZM89.0566 25.6328V50.5156H85.5293V25.6328H89.0566ZM81.5918 28.2305C81.5918 35.7773 78.9395 42.0391 70.0527 46.25L68.2207 43.4609C74.6465 40.4258 77.4766 36.4883 78.0371 30.9648H69.5605V28.2305H81.5918ZM117.659 42.9414V50.2422H100.296V42.9414H117.659ZM103.741 45.5391V47.6445H114.241V45.5391H103.741ZM119.191 27.4102V30.0352H98.7648V27.4102H107.269V25.4141H110.769V27.4102H119.191ZM109.019 30.6641C114.405 30.6914 117.386 31.8672 117.386 34.2188C117.386 36.2969 115.048 37.4863 110.769 37.7188V38.9492H120.366V41.6836H97.671V38.9492H107.269V37.7188C103.003 37.4863 100.624 36.2969 100.651 34.2188C100.624 31.8672 103.659 30.6914 109.019 30.6641ZM109.019 33.0156C105.874 33.0156 104.37 33.3438 104.37 34.2188C104.37 35.0664 105.874 35.4219 109.019 35.4219C112.191 35.4219 113.64 35.0664 113.64 34.2188C113.64 33.3438 112.191 33.0156 109.019 33.0156Z" fill="#1D5AD4"/>
</svg>
