<svg width="160" height="80" viewBox="0 0 160 80" fill="none" xmlns="http://www.w3.org/2000/svg">
<rect width="160" height="80" rx="20" fill="white"/>
<path d="M65.6088 28.6953V30.4727H45.894V28.6953H54.7534V25.7695H56.8588V28.6953H65.6088ZM67.0034 41.6562V43.4336H56.8588V50.2695H54.7534V43.4336H44.7455V41.6562H67.0034ZM55.8198 31.8672C60.769 31.8672 63.7495 33.3164 63.7495 35.9414C63.7495 38.5117 60.769 39.9609 55.8198 39.9883C50.8432 39.9609 47.8627 38.5117 47.8901 35.9414C47.8627 33.3164 50.8432 31.8672 55.8198 31.8672ZM55.8198 33.5078C52.183 33.5078 50.0776 34.4102 50.1049 35.9414C50.0776 37.4453 52.183 38.3203 55.8198 38.3203C59.4018 38.3203 61.5073 37.4453 61.5346 35.9414C61.5073 34.4102 59.4018 33.5078 55.8198 33.5078ZM88.4824 25.9062V50.2148H86.3223V25.9062H88.4824ZM81.291 28.5586C81.2637 35.5586 78.0098 41.7383 69.8613 45.6484L68.6855 43.8984C75.2617 40.7812 78.6113 36.1191 79.1035 30.3086H69.8066V28.5586H81.291ZM117.933 42.9414V49.8867H101.198V42.9414H117.933ZM103.331 44.6094V48.2188H115.827V44.6094H103.331ZM119.355 27.957V29.625H99.6398V27.957H108.499V25.5508H110.632V27.957H119.355ZM109.566 30.6094C114.597 30.6367 117.441 31.7852 117.441 34.0547C117.441 36.1875 114.993 37.3223 110.632 37.4727V39.3594H120.64V41.082H98.4913V39.3594H108.499V37.4727C104.124 37.3223 101.663 36.1875 101.663 34.0547C101.663 31.7852 104.534 30.6367 109.566 30.6094ZM109.566 32.1133C105.984 32.1406 103.933 32.7969 103.96 34.0547C103.933 35.2852 105.984 35.9961 109.566 35.9961C113.12 35.9961 115.171 35.2852 115.171 34.0547C115.171 32.7969 113.12 32.1406 109.566 32.1133Z" fill="black"/>
</svg>
