<svg width="420" height="92" viewBox="0 0 420 92" fill="none" xmlns="http://www.w3.org/2000/svg">
<rect x="1" y="1" width="418" height="90" rx="19" fill="white" stroke="#1D5AD4" stroke-width="2"/>
<mask id="mask0_174_682" style="mask-type:alpha" maskUnits="userSpaceOnUse" x="44" y="26" width="40" height="40">
<rect x="44" y="26" width="40" height="40" fill="#D9D9D9"/>
</mask>
<g mask="url(#mask0_174_682)">
<path d="M53.1666 59.7502V34.8464C53.1666 34.0045 53.4583 33.2918 54.0416 32.7085C54.625 32.1252 55.3376 31.8335 56.1795 31.8335H71.8204C72.6623 31.8335 73.375 32.1252 73.9583 32.7085C74.5416 33.2918 74.8333 34.0045 74.8333 34.8464V59.7502L64 55.1027L53.1666 59.7502Z" fill="#1D5AD4"/>
</g>
<path d="M139.247 32.4375V60.875H135.403V46.6562H132.747V59.5H128.997V32.9062H132.747V43.4375H135.403V32.4375H139.247ZM119.872 35.5938V50.4375C122.153 50.3906 124.653 50.1875 127.403 49.6562L127.809 53.0938C123.997 53.75 120.747 53.9375 117.809 53.9375H115.872V35.5938H119.872ZM161.279 50.1562C167.498 50.1562 171.404 52.125 171.436 55.5312C171.404 58.875 167.498 60.875 161.279 60.875C155.123 60.875 151.154 58.875 151.154 55.5312C151.154 52.125 155.123 50.1562 161.279 50.1562ZM161.279 53.125C157.373 53.125 155.123 53.9375 155.123 55.5312C155.123 57.0625 157.373 57.8438 161.279 57.8438C165.186 57.8438 167.467 57.0625 167.467 55.5312C167.467 53.9375 165.186 53.125 161.279 53.125ZM171.279 33.7188V36.0312C171.279 38.2812 171.279 40.7188 170.467 43.6562L166.561 43.2812C167.186 40.7031 167.264 38.7812 167.311 36.8438H151.436V33.7188H171.279ZM174.342 45.125V48.3438H148.529V45.125H158.217V40.1562H162.154V45.125H174.342ZM201.514 54.2812V57.5625H175.483V54.2812H186.452V48.4688H178.233V34.5312H198.608V48.4688H190.421V54.2812H201.514ZM182.171 37.7188V45.3438H194.671V37.7188H182.171ZM226.468 32.4688V53.2188H222.499V43.0312H217.843V39.8125H222.499V32.4688H226.468ZM227.156 57.1875V60.375H207.593V51.4062H211.593V57.1875H227.156ZM213.249 38.0312C213.249 41.3125 215.249 44.8438 219.781 46.3125L217.812 49.4688C214.656 48.4531 212.499 46.375 211.249 43.7812C209.999 46.6562 207.734 48.9375 204.374 50.0625L202.343 46.8125C207.031 45.3438 209.156 41.625 209.187 38V37.5625H203.468V34.375H218.906V37.5625H213.249V38.0312ZM254.172 32.4375V60.875H250.359V32.4375H254.172ZM248.234 32.8438V59.5625H244.484V46.125H242.203C241.828 51.7188 239.453 55.0938 235.953 55.0938C232.203 55.0938 229.766 51.1562 229.766 44.75C229.766 38.375 232.203 34.4688 235.953 34.4688C239.375 34.4688 241.719 37.6562 242.172 42.9688H244.484V32.8438H248.234ZM235.953 38.2188C234.359 38.2188 233.422 40.4062 233.453 44.75C233.422 49.125 234.359 51.2812 235.953 51.25C237.578 51.2812 238.547 49.125 238.547 44.75C238.547 40.4062 237.578 38.2188 235.953 38.2188ZM287.298 32.4375V60.9375H283.298V45.5938H278.204V42.3438H283.298V32.4375H287.298ZM274.017 39.5625C274.017 44.5625 276.298 49.7812 281.111 51.8438L278.767 55C275.47 53.4531 273.236 50.4688 272.017 46.8438C270.783 50.7188 268.517 53.9531 265.204 55.5938L262.829 52.4375C267.611 50.25 269.923 44.8438 269.923 39.5625V38.375H264.017V35.1875H279.923V38.375H274.017V39.5625ZM306.439 34.3438V37.5312H300.783C300.814 40.8438 302.799 44.0469 307.346 45.375L305.439 48.5C302.299 47.5469 300.127 45.6406 298.877 43.1875C297.611 46.0625 295.299 48.3438 291.877 49.4688L289.846 46.3125C294.564 44.8281 296.689 41.1406 296.752 37.5312H290.939V34.3438H306.439ZM312.846 32.4375V39.0312H316.689V42.2812H312.846V49.3125H308.846V32.4375H312.846ZM303.533 49.875C309.439 49.8438 313.127 51.875 313.127 55.3438C313.127 58.8125 309.439 60.875 303.533 60.875C297.502 60.875 293.783 58.8125 293.783 55.3438C293.783 51.875 297.502 49.8438 303.533 49.875ZM303.533 52.9688C299.783 52.9688 297.752 53.75 297.783 55.3438C297.752 56.9688 299.783 57.7812 303.533 57.7812C307.221 57.7812 309.189 56.9688 309.189 55.3438C309.189 53.75 307.221 52.9688 303.533 52.9688ZM339.737 32.4375V43.5625H343.924V46.8438H339.737V60.875H335.799V32.4375H339.737ZM333.862 36.6875V39.875H317.143V36.6875H323.581V32.875H327.581V36.6875H333.862ZM325.581 41.4688C329.737 41.4688 332.831 44.2812 332.831 48.25C332.831 52.2188 329.737 55.0312 325.581 55.0312C321.393 55.0312 318.299 52.2188 318.299 48.25C318.299 44.2812 321.393 41.4688 325.581 41.4688ZM325.581 44.6875C323.581 44.7188 322.112 46.0625 322.112 48.25C322.112 50.4688 323.581 51.7812 325.581 51.75C327.581 51.7812 329.018 50.4688 329.018 48.25C329.018 46.0625 327.581 44.7188 325.581 44.6875ZM368.222 32.4375V60.875H364.191V32.4375H368.222ZM359.691 35.4062C359.691 44.0312 356.659 51.1875 346.503 56L344.409 52.8125C351.753 49.3438 354.988 44.8438 355.628 38.5312H345.941V35.4062H359.691Z" fill="#1D5AD4"/>
</svg>
