<svg width="144" height="24" viewBox="0 0 144 24" fill="none" xmlns="http://www.w3.org/2000/svg">
<mask id="mask0_1071_326" style="mask-type:alpha" maskUnits="userSpaceOnUse" x="0" y="0" width="24" height="24">
<rect width="24" height="24" fill="#D9D9D9"/>
</mask>
<g mask="url(#mask0_1071_326)">
<path d="M10.6 16.6L17.65 9.55L16.25 8.15L10.6 13.8L7.75 10.95L6.35 12.35L10.6 16.6ZM12 22C10.6167 22 9.31667 21.7375 8.1 21.2125C6.88333 20.6875 5.825 19.975 4.925 19.075C4.025 18.175 3.3125 17.1167 2.7875 15.9C2.2625 14.6833 2 13.3833 2 12C2 10.6167 2.2625 9.31667 2.7875 8.1C3.3125 6.88333 4.025 5.825 4.925 4.925C5.825 4.025 6.88333 3.3125 8.1 2.7875C9.31667 2.2625 10.6167 2 12 2C13.3833 2 14.6833 2.2625 15.9 2.7875C17.1167 3.3125 18.175 4.025 19.075 4.925C19.975 5.825 20.6875 6.88333 21.2125 8.1C21.7375 9.31667 22 10.6167 22 12C22 13.3833 21.7375 14.6833 21.2125 15.9C20.6875 17.1167 19.975 18.175 19.075 19.075C18.175 19.975 17.1167 20.6875 15.9 21.2125C14.6833 21.7375 13.3833 22 12 22ZM12 20C14.2333 20 16.125 19.225 17.675 17.675C19.225 16.125 20 14.2333 20 12C20 9.76667 19.225 7.875 17.675 6.325C16.125 4.775 14.2333 4 12 4C9.76667 4 7.875 4.775 6.325 6.325C4.775 7.875 4 9.76667 4 12C4 14.2333 4.775 16.125 6.325 17.675C7.875 19.225 9.76667 20 12 20Z" fill="#008C00"/>
</g>
<path d="M45.5879 4.79688V20.459H44.1992V11.6348H40.7715V10.4922H44.1992V4.79688H45.5879ZM38.0469 9.4375C38.0469 12.0391 39.9102 14.8691 42.1953 15.9062L41.3691 17.0137C39.585 16.1436 38.082 14.2539 37.3789 12.0742C36.6582 14.3857 35.1201 16.3896 33.3359 17.3301L32.4922 16.2578C34.7598 15.1504 36.6406 12.2148 36.6582 9.4375V7.55664H33.0898V6.41406H41.6328V7.55664H38.0469V9.4375ZM53.1205 7.76758C53.1205 9.80664 54.6498 11.6348 56.9525 12.3906L56.3021 13.4805C54.5004 12.8916 53.138 11.6436 52.4701 10.0703C51.7933 11.8633 50.3519 13.2607 48.4798 13.9375L47.7767 12.8301C50.1146 12.0391 51.7494 10.0176 51.767 7.76758V7.09961H48.1986V5.95703H56.6361V7.09961H53.1205V7.76758ZM60.0463 4.79688V8.78711H62.4017V9.94727H60.0463V14.2363H58.6752V4.79688H60.0463ZM55.0365 14.6582C58.2533 14.6582 60.1869 15.7129 60.1869 17.5059C60.1869 19.334 58.2533 20.3887 55.0365 20.3887C51.8197 20.3887 49.8509 19.334 49.8509 17.5059C49.8509 15.7129 51.8197 14.6582 55.0365 14.6582ZM55.0365 15.7656C52.681 15.7656 51.222 16.416 51.2396 17.5059C51.222 18.6309 52.681 19.2812 55.0365 19.2812C57.4095 19.2812 58.8509 18.6309 58.8509 17.5059C58.8509 16.416 57.4095 15.7656 55.0365 15.7656ZM72.3425 11.5469V12.6895H68.9148V15.7656C70.4441 15.7041 71.9821 15.5986 73.4323 15.4316L73.5378 16.4688C70.0749 16.9785 66.2956 17.0312 63.3073 17.0312L63.114 15.8711C64.4763 15.8711 65.988 15.8623 67.5437 15.8184V12.6895H64.3093V6.29102H72.2722V7.41602H65.6628V11.5469H72.3425ZM75.8405 4.79688V20.459H74.4695V4.79688H75.8405ZM83.6016 15.2734C83.6016 16.6709 84.3399 18.1475 85.8341 19C87.3282 18.0684 88.1016 16.4775 88.1016 15.2734V14.3242H89.4552V15.2734C89.4552 16.8906 90.6153 18.5078 92.6544 19.1934L91.9337 20.2305C90.378 19.668 89.2882 18.5693 88.7696 17.2422C88.2686 18.5254 87.3106 19.7295 85.8516 20.3535C84.3487 19.7822 83.3907 18.6221 82.9161 17.3125C82.3536 18.5693 81.2813 19.6592 79.7872 20.2305L79.1016 19.1934C81.088 18.4727 82.2657 16.7852 82.2833 15.2734V14.3242H83.6016V15.2734ZM82.5294 5.69336C84.586 5.69336 86.1944 6.92383 86.502 8.73438H89.7891V4.79688H91.1778V13.7266H89.7891V9.87695H86.5196C86.2471 11.749 84.6212 13.0059 82.5294 13.0059C80.1915 13.0059 78.4864 11.5117 78.4864 9.34961C78.4864 7.20508 80.1915 5.69336 82.5294 5.69336ZM82.5294 6.87109C80.9649 6.85352 79.8048 7.89062 79.8223 9.34961C79.8048 10.791 80.9649 11.8457 82.5294 11.8633C84.0587 11.8457 85.2188 10.791 85.2188 9.34961C85.2188 7.89062 84.0587 6.85352 82.5294 6.87109ZM96.601 14.1836V16.0117H104.406V14.1836H105.794V20.2129H95.2299V14.1836H96.601ZM96.601 19.1055H104.406V17.1016H96.601V19.1055ZM107.658 11.9336V13.0762H93.4194V11.9336H107.658ZM101.259 5.71094C101.259 7.64453 104.107 9.36719 106.849 9.71875L106.339 10.8262C103.914 10.4658 101.54 9.22656 100.556 7.46875C99.5541 9.23535 97.1635 10.4658 94.7553 10.8262L94.228 9.71875C97.0053 9.34961 99.8354 7.69727 99.8354 5.71094V4.97266H101.259V5.71094ZM121.501 4.79688V20.4238H120.13V4.79688H121.501ZM110.989 6.34375V15.2031C113.371 15.1943 115.841 15.001 118.46 14.4473L118.653 15.625C115.876 16.2051 113.397 16.3984 110.901 16.3984H109.636V6.34375H110.989ZM135.906 4.79688V10.9844H138.526V12.1445H135.906V20.459H134.535V4.79688H135.906ZM131.793 6.32617V7.46875H125.869V15.3789C128.699 15.3789 130.703 15.2471 133.024 14.8164L133.199 16.0117C130.756 16.4512 128.699 16.5391 125.729 16.5391H124.498V6.32617H131.793ZM140.662 19.1055C140.046 19.1055 139.519 18.5957 139.537 17.9629C139.519 17.3477 140.046 16.8379 140.662 16.8379C141.277 16.8379 141.787 17.3477 141.787 17.9629C141.787 18.5957 141.277 19.1055 140.662 19.1055Z" fill="#A9A9A9"/>
</svg>
