<svg width="420" height="92" viewBox="0 0 420 92" fill="none" xmlns="http://www.w3.org/2000/svg">
<rect x="1" y="1" width="418" height="90" rx="19" fill="white" stroke="#1D5AD4" stroke-width="2"/>
<mask id="mask0_174_831" style="mask-type:alpha" maskUnits="userSpaceOnUse" x="44" y="26" width="40" height="40">
<rect x="44" y="26" width="40" height="40" fill="#D9D9D9"/>
</mask>
<g mask="url(#mask0_174_831)">
<path d="M53.1666 59.7497V34.8459C53.1666 34.004 53.4583 33.2913 54.0416 32.708C54.625 32.1247 55.3376 31.833 56.1795 31.833H71.8204C72.6623 31.833 73.375 32.1247 73.9583 32.708C74.5416 33.2913 74.8333 34.004 74.8333 34.8459V59.7497L64 55.1022L53.1666 59.7497ZM55.6666 55.9163L64 52.333L72.3333 55.9163V34.8459C72.3333 34.7176 72.2798 34.6001 72.1729 34.4934C72.0662 34.3865 71.9487 34.333 71.8204 34.333H56.1795C56.0512 34.333 55.9337 34.3865 55.827 34.4934C55.7201 34.6001 55.6666 34.7176 55.6666 34.8459V55.9163Z" fill="#1D5AD4"/>
</g>
<path d="M138.059 32.75V60.5312H135.653V46.1562H131.653V59.0938H129.341V33.375H131.653V44.0625H135.653V32.75H138.059ZM118.184 36.1562V51.1562C120.95 51.125 123.887 50.9375 127.278 50.25L127.591 52.4375C123.716 53.125 120.528 53.3438 117.466 53.3438H115.747V36.1562H118.184ZM161.311 50.3125C167.279 50.3125 171.061 52.1875 171.061 55.4062C171.061 58.5938 167.279 60.4688 161.311 60.4688C155.373 60.4688 151.592 58.5938 151.592 55.4062C151.592 52.1875 155.373 50.3125 161.311 50.3125ZM161.311 52.1875C156.873 52.2188 153.998 53.4375 154.029 55.4062C153.998 57.3438 156.873 58.5312 161.311 58.5312C165.748 58.5312 168.592 57.3438 168.623 55.4062C168.592 53.4375 165.748 52.2188 161.311 52.1875ZM170.842 34.1875V36.5312C170.842 38.7812 170.842 41.0312 170.061 43.9062L167.654 43.625C168.404 40.75 168.404 38.7188 168.404 36.5312V36.1875H151.779V34.1875H170.842ZM174.061 45.7188V47.7188H148.779V45.7188H159.248V40.3438H161.654V45.7188H174.061ZM201.202 54.9062V56.9688H175.764V54.9062H187.202V48.125H178.764V35.0938H198.046V48.125H189.608V54.9062H201.202ZM181.171 37.0625V46.1562H195.671V37.0625H181.171ZM225.812 32.7812V53.1562H223.343V42.5H217.624V40.4688H223.343V32.7812H225.812ZM226.593 57.875V59.9375H207.968V51.3125H210.437V57.875H226.593ZM212.437 38.5C212.437 42.0938 215.218 45.5938 219.281 46.9688L217.999 48.9375C214.859 47.8125 212.437 45.4688 211.249 42.5938C210.046 45.7969 207.484 48.3594 204.187 49.5938L202.906 47.5938C206.999 46.1562 209.968 42.5 209.968 38.5V37.0625H203.687V35.0312H218.656V37.0625H212.437V38.5ZM253.609 32.75V60.5312H251.234V32.75H253.609ZM248.016 33.3438V59.125H245.672V45.625H242.109C241.844 51.0312 239.547 54.4062 236.109 54.4062C232.484 54.4062 230.141 50.6562 230.141 44.75C230.141 38.8438 232.484 35.0938 236.109 35.0938C239.484 35.0938 241.766 38.3594 242.078 43.5938H245.672V33.3438H248.016ZM236.109 37.4062C233.859 37.4062 232.422 40.2188 232.453 44.75C232.422 49.25 233.859 52.0938 236.109 52.0625C238.359 52.0938 239.797 49.25 239.797 44.75C239.797 40.2188 238.359 37.4062 236.109 37.4062ZM287.236 32.75V60.5938H284.767V44.9062H278.673V42.875H284.767V32.75H287.236ZM273.829 41C273.829 45.625 277.142 50.6562 281.204 52.5L279.736 54.4688C276.564 52.9219 273.892 49.5625 272.642 45.6875C271.361 49.7969 268.626 53.3594 265.454 55.0312L263.954 53.125C267.986 51.1562 271.329 45.9375 271.361 41V37.6562H265.017V35.625H280.204V37.6562H273.829V41ZM300.627 38.0312C300.627 41.6562 303.346 44.9062 307.439 46.25L306.283 48.1875C303.08 47.1406 300.658 44.9219 299.471 42.125C298.268 45.3125 295.705 47.7969 292.377 49L291.127 47.0312C295.283 45.625 298.189 42.0312 298.221 38.0312V36.8438H291.877V34.8125H306.877V36.8438H300.627V38.0312ZM312.939 32.75V39.8438H317.127V41.9062H312.939V49.5312H310.502V32.75H312.939ZM304.033 50.2812C309.752 50.2812 313.189 52.1562 313.189 55.3438C313.189 58.5938 309.752 60.4688 304.033 60.4688C298.314 60.4688 294.814 58.5938 294.814 55.3438C294.814 52.1562 298.314 50.2812 304.033 50.2812ZM304.033 52.25C299.846 52.25 297.252 53.4062 297.283 55.3438C297.252 57.3438 299.846 58.5 304.033 58.5C308.252 58.5 310.814 57.3438 310.814 55.3438C310.814 53.4062 308.252 52.25 304.033 52.25ZM339.737 32.75V44.2188H344.393V46.25H339.737V60.5312H337.299V32.75H339.737ZM334.612 37.2188V39.25H318.081V37.2188H325.237V33.0938H327.674V37.2188H334.612ZM326.487 41.5625C330.424 41.5625 333.268 44.1875 333.299 47.9375C333.268 51.6875 330.424 54.3125 326.487 54.3125C322.518 54.3125 319.643 51.6875 319.674 47.9375C319.643 44.1875 322.518 41.5625 326.487 41.5625ZM326.487 43.625C323.893 43.625 321.987 45.4375 322.018 47.9375C321.987 50.4688 323.893 52.25 326.487 52.2188C329.049 52.25 330.924 50.4688 330.956 47.9375C330.924 45.4375 329.049 43.625 326.487 43.625ZM368.222 32.75V60.5312H365.753V32.75H368.222ZM360.003 35.7812C359.972 43.7812 356.253 50.8438 346.941 55.3125L345.597 53.3125C353.113 49.75 356.941 44.4219 357.503 37.7812H346.878V35.7812H360.003Z" fill="#1D5AD4"/>
</svg>
