<svg width="178" height="66" viewBox="0 0 178 66" fill="none" xmlns="http://www.w3.org/2000/svg">
<rect x="1" y="1" width="176" height="64" rx="20" fill="white" stroke="#1D5AD4" stroke-width="2"/>
<path d="M55.4855 27.9453C55.2043 25.4492 52.9191 24.0078 49.8605 24.0078C46.4855 24.0078 44.2707 25.7656 44.2707 28.1914C44.2707 30.8633 47.259 31.8477 49.1926 32.3398L51.7238 33.043C54.466 33.7461 58.9309 35.3281 58.9309 40.0742C58.9309 44.2227 55.591 47.457 49.6848 47.457C44.2004 47.457 40.7902 44.6094 40.509 40.3906H43.7434C44.0246 43.2383 46.6613 44.5742 49.6848 44.5742C53.2004 44.5742 55.8371 42.7812 55.8371 40.0039C55.8371 37.543 53.4816 36.5938 50.8098 35.8203L47.6809 34.9766C43.673 33.8164 41.2121 31.7773 41.2121 28.332C41.2121 24.043 45.0441 21.1953 49.966 21.1953C54.8879 21.1953 58.4387 24.0781 58.5793 27.9453H55.4855ZM62.3593 54.1719V27.9102H65.2773V30.9336H65.6288C66.2616 29.9141 67.457 27.6641 71.1484 27.6641C75.9296 27.6641 79.2695 31.4609 79.2695 37.5078C79.2695 43.5547 75.9296 47.3867 71.1835 47.3867C67.5273 47.3867 66.2616 45.1367 65.6288 44.082H65.3827V54.1719H62.3593ZM65.3124 37.4375C65.3124 41.7266 67.246 44.6797 70.7616 44.6797C74.3827 44.6797 76.246 41.5156 76.246 37.4375C76.246 33.4648 74.4179 30.3711 70.7616 30.3711C67.1757 30.3711 65.3124 33.2188 65.3124 37.4375ZM82.487 47V27.9102H85.4049V30.8281H85.6159C86.319 28.8945 88.2877 27.5938 90.5377 27.5938C90.9948 27.5938 91.7682 27.6289 92.1198 27.6641V30.7227C91.9088 30.6523 91.0651 30.5117 90.2916 30.5117C87.5495 30.5117 85.5104 32.4102 85.5104 34.9766V47H82.487ZM94.3529 47V27.9102H97.3763V47H94.3529ZM95.8646 24.7461C94.7045 24.7461 93.7552 23.8672 93.7552 22.7422C93.7552 21.6172 94.7045 20.7383 95.8646 20.7383C97.0248 20.7383 98.0091 21.6172 98.0091 22.7422C98.0091 23.8672 97.0248 24.7461 95.8646 24.7461ZM104.496 35.5391V47H101.473V27.9102H104.391V30.8984H104.637C105.551 28.9648 107.309 27.6641 110.227 27.6641C114.094 27.6641 116.66 30.0195 116.66 34.8711V47H113.637V35.082C113.637 32.1289 112.02 30.3711 109.313 30.3711C106.535 30.3711 104.496 32.2344 104.496 35.5391ZM128.526 54.5586C123.921 54.5586 120.792 52.5547 120.44 49.0039H123.604C124.026 50.9375 125.819 51.9219 128.526 51.9219C131.796 51.9219 133.8 50.5156 133.8 47.3516V43.4844H133.554C132.921 44.5391 131.69 46.7188 127.999 46.7188C123.358 46.7188 119.878 43.2031 119.878 37.1914C119.878 31.3203 123.253 27.6641 128.034 27.6641C131.725 27.6641 132.921 29.9141 133.624 30.9336H133.87V27.9102H136.823V47.5273C136.823 52.4492 133.167 54.5586 128.526 54.5586ZM128.421 44.0117C131.901 44.0117 133.87 41.5156 133.87 37.2969C133.87 33.2188 131.971 30.3711 128.421 30.3711C124.764 30.3711 122.936 33.4648 122.936 37.2969C122.936 41.2695 124.8 44.0117 128.421 44.0117Z" fill="#1D5AD4"/>
</svg>
