<svg width="176" height="64" viewBox="0 0 176 64" fill="none" xmlns="http://www.w3.org/2000/svg">
<rect width="176" height="64" rx="20" fill="#1D5AD4"/>
<path d="M50.1262 27.8242C49.9152 25.8203 48.298 24.625 45.7316 24.625C43.0598 24.625 41.5832 25.8555 41.548 27.543C41.5129 29.3711 43.4465 30.2148 45.6262 30.707L47.9113 31.2695C52.2707 32.2539 55.5402 34.4688 55.5402 38.7227C55.5402 43.3984 51.884 46.3516 45.6965 46.3516C39.5441 46.3516 35.6066 43.5039 35.466 38.0547H40.5988C40.7746 40.6211 42.8137 41.9219 45.6262 41.9219C48.4035 41.9219 50.1965 40.6211 50.1965 38.7227C50.1965 37 48.6145 36.1914 45.8371 35.4883L43.0598 34.8203C38.7707 33.7656 36.134 31.6211 36.134 27.8945C36.134 23.2539 40.2121 20.1953 45.7668 20.1953C51.3918 20.1953 55.1184 23.3242 55.1887 27.8242H50.1262ZM58.1601 53.1719V26.9102H63.2929V30.1094H63.5038C64.207 28.5625 65.7538 26.6641 68.953 26.6641C73.1718 26.6641 76.6874 29.9336 76.6874 36.4727C76.6874 42.8359 73.3124 46.3164 68.953 46.3164C65.8241 46.3164 64.2421 44.5234 63.5038 42.9414H63.3632V53.1719H58.1601ZM63.2577 36.4375C63.2577 39.8828 64.7343 42.168 67.3007 42.168C69.9726 42.168 71.3788 39.8125 71.3788 36.4375C71.3788 33.0977 69.9726 30.8125 67.3007 30.8125C64.6991 30.8125 63.2577 32.9922 63.2577 36.4375ZM79.3424 46V26.9102H84.3698V30.2148H84.5807C85.2838 27.8594 87.0416 26.6289 89.1862 26.6289C89.7135 26.6289 90.3815 26.6992 90.8385 26.8047V31.4453C90.3463 31.3047 89.362 31.1641 88.6237 31.1641C86.2682 31.1641 84.5455 32.8164 84.5455 35.1367V46H79.3424ZM92.6498 46V26.9102H97.8529V46H92.6498ZM95.2513 24.4141C93.6693 24.4141 92.4037 23.2188 92.4037 21.7773C92.4037 20.3008 93.6693 19.1055 95.2513 19.1055C96.7982 19.1055 98.0638 20.3008 98.0638 21.7773C98.0638 23.2188 96.7982 24.4141 95.2513 24.4141ZM106.379 34.9609V46H101.176V26.9102H106.133V30.25H106.344C107.223 28.0352 109.262 26.6641 112.074 26.6641C116.047 26.6641 118.684 29.3711 118.649 33.8359V46H113.481V34.75C113.481 32.3945 112.18 30.9883 110.035 30.9883C107.856 30.9883 106.379 32.4297 106.379 34.9609ZM130.55 53.5586C125.276 53.5586 122.042 51.2031 121.725 47.582H126.858C127.139 49.0938 128.581 49.7969 130.655 49.7969C133.081 49.7969 134.698 48.7773 134.698 46.1055V42.625H134.452C133.749 44.1719 132.061 45.7188 129.003 45.7188C124.679 45.7188 121.233 42.6953 121.233 36.332C121.233 29.8633 124.784 26.6641 129.003 26.6641C132.202 26.6641 133.749 28.5625 134.452 30.1094H134.663V26.9102H139.831V46.2109C139.831 51.0625 135.964 53.5586 130.55 53.5586ZM130.62 41.8164C133.221 41.8164 134.698 39.7773 134.698 36.4023C134.698 32.9922 133.221 30.8125 130.62 30.8125C127.983 30.8125 126.577 33.0977 126.577 36.4023C126.577 39.707 127.983 41.8164 130.62 41.8164Z" fill="white"/>
</svg>
