<svg width="140" height="48" viewBox="0 0 140 48" fill="none" xmlns="http://www.w3.org/2000/svg">
<rect x="0.5" y="0.5" width="139" height="47" rx="9.5" stroke="#1D5AD4"/>
<path d="M51.0977 16.2383V28.9727H49.5547V22.3125H45.9805V21.043H49.5547V16.2383H51.0977ZM51.5859 31.9219V33.2109H39.9453V27.8203H41.4883V31.9219H51.5859ZM42.7383 19.8125C42.7383 22.0586 44.4766 24.2461 47.0156 25.1055L46.2148 26.3359C44.252 25.6328 42.7383 24.168 41.9961 22.3711C41.2441 24.373 39.6426 25.9746 37.582 26.7461L36.7812 25.4961C39.3398 24.5977 41.1953 22.3125 41.1953 19.8125V18.9141H37.2695V17.6445H46.625V18.9141H42.7383V19.8125ZM57.7484 17.3125C60.0336 17.3125 61.7328 19.0117 61.7328 21.4141C61.7328 23.8359 60.0336 25.4766 57.7484 25.4766C55.4242 25.4766 53.7641 23.8359 53.7836 21.4141C53.7641 19.0117 55.4242 17.3125 57.7484 17.3125ZM57.7484 18.6406C56.2641 18.6406 55.1508 19.8125 55.1703 21.4141C55.1508 23.0156 56.2641 24.1875 57.7484 24.1875C59.2328 24.1875 60.307 23.0156 60.3266 21.4141C60.307 19.8125 59.2328 18.6406 57.7484 18.6406ZM68.3344 16.2383V26.5703H66.8695V21.9805H64.5648V26.4531H63.1195V16.5703H64.5648V20.7109H66.8695V16.2383H68.3344ZM68.3344 27.5469V33.582H66.8305V28.7773H56.6352V27.5469H68.3344ZM76.2938 20.8867C76.2938 23.9531 78.325 27.0977 80.7859 28.3086L79.8484 29.5391C77.9344 28.5332 76.3328 26.4824 75.5711 24.0703C74.7898 26.6387 73.1492 28.8262 71.1961 29.8711L70.2195 28.6406C72.7586 27.3906 74.7703 24.0508 74.7898 20.8867V17.7227H76.2938V20.8867ZM83.9109 16.2188V23.2695H86.8211V24.5977H83.9109V33.582H82.3875V16.2188H83.9109ZM103.179 24.8125V26.082H87.3586V24.8125H91.2844V22.3711C89.8977 21.834 89.1164 20.9453 89.1164 19.7734C89.1164 17.7227 91.4602 16.5508 95.2687 16.5508C99.0383 16.5508 101.402 17.7227 101.402 19.7734C101.402 20.9355 100.63 21.8242 99.2531 22.3516V24.8125H103.179ZM95.2687 27.4102C98.9992 27.4102 101.226 28.4844 101.245 30.4766C101.226 32.4492 98.9992 33.543 95.2687 33.543C91.4992 33.543 89.2727 32.4492 89.2727 30.4766C89.2727 28.4844 91.4992 27.4102 95.2687 27.4102ZM95.2687 28.582C92.4758 28.6016 90.8156 29.2852 90.8352 30.4766C90.8156 31.6484 92.4758 32.3516 95.2687 32.3516C98.0227 32.3516 99.7023 31.6484 99.7023 30.4766C99.7023 29.2852 98.0227 28.6016 95.2687 28.582ZM95.2687 17.7617C92.4367 17.7617 90.6789 18.5234 90.6984 19.7734C90.6789 21.043 92.4367 21.7852 95.2687 21.7852C98.0812 21.7852 99.8391 21.043 99.8391 19.7734C99.8391 18.5234 98.0812 17.7617 95.2687 17.7617ZM92.8078 24.8125H97.7297V22.7812C96.9973 22.9082 96.177 22.9766 95.2687 22.9766C94.3605 22.9766 93.5402 22.9082 92.8078 22.7812V24.8125Z" fill="#1D5AD4"/>
</svg>
