<svg width="162" height="66" viewBox="0 0 162 66" fill="none" xmlns="http://www.w3.org/2000/svg">
<rect x="1" y="1" width="160" height="64" rx="20" fill="white" stroke="#1D5AD4" stroke-width="2"/>
<path d="M52.6028 47L45.6419 21.5469H48.8411L54.1497 42.1484H54.3958L59.7747 21.5469H63.3255L68.7395 42.1484H68.9505L74.2591 21.5469H77.4583L70.4973 47H67.2278L61.6731 26.8555H61.4622L55.8723 47H52.6028ZM85.9141 47.3867C80.3945 47.3867 76.9844 43.4844 76.9844 37.6133C76.9844 31.7422 80.4297 27.6641 85.6328 27.6641C89.6406 27.6641 93.8594 30.125 93.8594 37.1914V38.457H80.0078C80.1484 42.5 82.5039 44.7148 85.9141 44.7148C88.1992 44.7148 89.6406 43.7305 90.3438 42.5352H93.5781C92.6641 45.418 89.8516 47.3867 85.9141 47.3867ZM80.043 35.8906H90.8008C90.8008 32.6914 88.7617 30.3359 85.6328 30.3359C82.3281 30.3359 80.2188 32.9375 80.043 35.8906ZM97.4636 47V21.5469H100.487V30.9336H100.733C101.401 29.9141 102.526 27.6641 106.253 27.6641C111.034 27.6641 114.409 31.4609 114.409 37.5078C114.409 43.5547 111.034 47.3867 106.288 47.3867C102.632 47.3867 101.401 45.1367 100.733 44.082H100.382V47H97.4636ZM100.417 37.4375C100.417 41.7266 102.35 44.6797 105.831 44.6797C109.452 44.6797 111.35 41.5156 111.35 37.4375C111.35 33.4648 109.522 30.3711 105.831 30.3711C102.315 30.3711 100.417 33.2188 100.417 37.4375Z" fill="#1D5AD4"/>
</svg>
