<svg width="160" height="64" viewBox="0 0 160 64" fill="none" xmlns="http://www.w3.org/2000/svg">
<rect width="160" height="64" rx="20" fill="#1D5AD4"/>
<path d="M49.7747 46L42.4973 20.5469H48.263L52.552 38.3359H52.763L57.4388 20.5469H62.3958L67.0716 38.3711H67.2825L71.5716 20.5469H77.3372L70.0598 46H64.8919L60.0403 29.1953H59.8294L54.9427 46H49.7747ZM85.793 46.3867C79.957 46.3867 76.3711 42.5898 76.3711 36.543C76.3711 30.6367 79.9922 26.6641 85.582 26.6641C90.6094 26.6641 94.5469 29.8281 94.5469 36.332V37.8086H81.5039C81.5039 40.6914 83.2266 42.4844 85.8984 42.4844C87.6562 42.4844 88.9219 41.7109 89.4492 40.5508H94.4062C93.668 44.0664 90.5039 46.3867 85.793 46.3867ZM81.5039 34.5391H89.625C89.625 32.2188 88.0078 30.5664 85.6875 30.5664C83.2969 30.5664 81.5918 32.3418 81.5039 34.5391ZM97.2019 46V20.5469H102.405V30.1094H102.546C103.284 28.5625 104.796 26.6641 107.995 26.6641C112.214 26.6641 115.764 29.9336 115.764 36.4727C115.764 42.8359 112.354 46.3164 107.995 46.3164C104.866 46.3164 103.284 44.5234 102.546 42.9414H102.335V46H97.2019ZM102.3 36.4375C102.3 39.8828 103.776 42.168 106.342 42.168C109.014 42.168 110.421 39.8125 110.421 36.4375C110.421 33.0977 109.014 30.8125 106.342 30.8125C103.741 30.8125 102.3 32.9922 102.3 36.4375Z" fill="white"/>
</svg>
