<svg width="184" height="60" viewBox="0 0 184 60" fill="none" xmlns="http://www.w3.org/2000/svg">
<rect width="184" height="60" rx="20" fill="#1D5AD4"/>
<path d="M53.7099 22.4961C53.7099 25.3906 55.7158 28.1582 59.1943 29.3262L57.9755 31.2051C55.3984 30.3164 53.5068 28.5391 52.5166 26.3047C51.5263 28.7676 49.5586 30.6973 46.8798 31.6367L45.5849 29.7578C49.1396 28.5391 51.2724 25.6191 51.2978 22.4707V21.8613H46.2959V19.9062H58.6103V21.8613H53.7099V22.4961ZM63.6377 18.4082V24.248H66.9384V26.2793H63.6377V32.1191H61.2255V18.4082H63.6377ZM63.6377 33.2363V41.1582H61.2255V35.1914H48.6064V33.2363H63.6377ZM75.7876 21.8105C75.7876 25.0098 77.8442 27.8535 81.2973 28.9707L79.977 30.8496C77.4761 29.9482 75.6352 28.1963 74.645 25.9238C73.6548 28.5264 71.6743 30.5449 68.9321 31.5352L67.6372 29.6055C71.268 28.3613 73.3755 25.3398 73.4009 21.9121V19.6777H75.7876V21.8105ZM86.6802 18.4082V31.8398H84.268V25.0098H79.4692V23.0293H84.268V18.4082H86.6802ZM79.063 32.4746C83.8364 32.4746 86.7563 34.0488 86.7563 36.8164C86.7563 39.5586 83.8364 41.1328 79.063 41.1074C74.2895 41.1328 71.3442 39.5586 71.3696 36.8164C71.3442 34.0488 74.2895 32.4746 79.063 32.4746ZM79.063 34.3535C75.7368 34.3535 73.7563 35.2422 73.7563 36.8164C73.7563 38.3398 75.7368 39.2031 79.063 39.2031C82.3891 39.2031 84.3696 38.3398 84.3696 36.8164C84.3696 35.2422 82.3891 34.3535 79.063 34.3535ZM102.398 19.4238C105.724 19.4238 108.06 21.252 108.085 23.9688C108.06 26.2793 106.308 27.9805 103.667 28.3867V30.3926C105.686 30.291 107.705 30.1133 109.584 29.834L109.761 31.6113C104.988 32.4746 99.6304 32.5508 95.7202 32.5508L95.4663 30.5957C97.1675 30.6084 99.1607 30.5957 101.255 30.5195V28.4121C98.5386 28.0312 96.7105 26.3174 96.7359 23.9688C96.7105 21.252 99.0718 19.4238 102.398 19.4238ZM102.398 21.2773C100.392 21.2773 98.9702 22.3184 98.9956 23.9688C98.9702 25.5684 100.392 26.6348 102.398 26.6348C104.429 26.6348 105.8 25.5684 105.8 23.9688C105.8 22.3184 104.429 21.2773 102.398 21.2773ZM113.392 18.4336V25.9492H116.642V27.9805H113.392V35.8262H110.98V18.4336H113.392ZM114.205 38.6953V40.6758H98.6909V34.3027H101.103V38.6953H114.205ZM138.263 36.4102V38.4414H117.442V36.4102H123.13V32.3984H119.981V25.1621H133.337V21.9883H119.931V20.0078H135.724V27.1172H122.368V30.418H136.257V32.3984H132.804V36.4102H138.263ZM125.466 36.4102H130.442V32.3984H125.466V36.4102Z" fill="white"/>
</svg>
